M48
; DRILL file {KiCad 5.1.6-c6e7f7d~87~ubuntu20.04.1} date Wed Jul 22 13:43:34 2020
; FORMAT={-:-/ absolute / inch / decimal}
; #@! TF.CreationDate,2020-07-22T13:43:34-07:00
; #@! TF.GenerationSoftware,Kicad,Pcbnew,5.1.6-c6e7f7d~87~ubuntu20.04.1
; #@! TF.FileFunction,Plated,1,2,PTH
FMAT,2
INCH
T1C0.0157
T2C0.0276
T3C0.0315
T4C0.0600
T5C0.0600
%
G90
G05
T1
X-16.4311Y12.8547
X-16.0606Y13.3874
X-15.8438Y13.5469
X-15.8131Y13.7093
X-15.6921Y12.6098
X-15.6819Y13.5563
X-15.6607Y12.3647
X-15.6459Y12.7153
X-15.6201Y12.3425
X-15.6189Y13.1535
X-15.5846Y11.8413
X-15.5684Y11.0212
X-15.5503Y12.1622
X-15.5006Y10.3397
X-15.4171Y13.2653
X-15.3912Y12.1174
X-15.3778Y13.2685
X-15.2807Y12.2496
X-15.2697Y12.8713
X-15.2473Y12.5234
X-15.203Y12.5381
X-15.1513Y12.7873
X-15.124Y12.3559
X-15.0646Y12.5839
X-15.0059Y12.7965
X-14.9232Y12.628
X-14.9063Y13.3374
X-14.9008Y12.713
X-14.8594Y13.9688
X-14.6457Y13.018
X-14.6378Y12.6346
X-14.626Y12.7862
X-14.0098Y13.4717
T2
X-15.8131Y13.8597
X-15.7816Y13.9069
X-15.7501Y13.8597
X-15.7186Y13.9069
X-15.6871Y13.8597
T4
X-6.15Y13.7875
X-5.9Y13.8875
X-11.4938Y10.7875
X-11.2438Y10.8875
X-6.2437Y12.2875
X-5.9937Y12.3875
X-16.0876Y13.0376
X-15.8376Y13.1376
X-15.9949Y12.2851
X-15.7449Y12.3851
X-15.2438Y10.7875
X-14.9938Y10.8875
X-5.9625Y13.0375
X-5.7125Y13.1375
X-15.8063Y11.5375
X-15.5563Y11.6375
X-6.8062Y11.5375
X-6.5562Y11.6375
X-16.1812Y10.7875
X-15.9313Y10.8875
X-14.3063Y10.7875
X-14.0563Y10.8875
T5
X-10.65Y13.0375
X-10.4Y13.1375
X-14.025Y13.7875
X-13.775Y13.8875
X-13.65Y13.0375
X-13.4Y13.1375
X-5.025Y11.5375
X-4.775Y11.6375
X-11.5875Y11.5375
X-11.3375Y11.6375
X-9.3375Y11.5375
X-9.0875Y11.6375
X-14.2125Y12.2875
X-13.9625Y12.3875
X-15.15Y13.0375
X-14.9Y13.1375
X-7.8375Y11.5375
X-7.5875Y11.6375
X-8.2125Y12.2875
X-7.9625Y12.3875
X-11.775Y13.7875
X-11.525Y13.8875
X-5.025Y13.7875
X-4.775Y13.8875
X-11.9625Y12.2875
X-11.7125Y12.3875
X-14.4Y13.0375
X-14.15Y13.1375
X-8.4Y13.0375
X-8.15Y13.1375
X-11.4Y13.0375
X-11.15Y13.1375
X-13.8375Y11.5375
X-13.5875Y11.6375
X-12.525Y13.7875
X-12.275Y13.8875
X-16.275Y13.7875
X-16.025Y13.8875
X-8.9625Y12.2875
X-8.7125Y12.3875
X-12.3375Y11.5375
X-12.0875Y11.6375
X-10.0875Y11.5375
X-9.8375Y11.6375
X-5.025Y13.0375
X-4.775Y13.1375
X-8.775Y13.7875
X-8.525Y13.8875
X-7.275Y10.7875
X-7.025Y10.8875
X-9.15Y13.0375
X-8.9Y13.1375
X-5.025Y12.2875
X-4.775Y12.3875
X-14.9625Y12.2875
X-14.7125Y12.3875
X-13.275Y13.7875
X-13.025Y13.8875
X-6.525Y10.7875
X-6.275Y10.8875
X-8.775Y10.7875
X-8.525Y10.8875
X-14.5875Y11.5375
X-14.3375Y11.6375
X-9.7125Y12.2875
X-9.4625Y12.3875
X-12.7125Y12.2875
X-12.4625Y12.3875
X-12.15Y13.0375
X-11.9Y13.1375
X-7.275Y13.7875
X-7.025Y13.8875
X-5.775Y10.7875
X-5.525Y10.8875
X-6.9Y13.0375
X-6.65Y13.1375
X-9.9Y13.0375
X-9.65Y13.1375
X-12.9Y13.0375
X-12.65Y13.1375
X-8.5875Y11.5375
X-8.3375Y11.6375
X-10.8375Y11.5375
X-10.5875Y11.6375
X-10.4625Y12.2875
X-10.2125Y12.3875
X-13.4625Y12.2875
X-13.2125Y12.3875
X-14.775Y13.7875
X-14.525Y13.8875
X-5.025Y10.7875
X-4.775Y10.8875
X-8.025Y13.7875
X-7.775Y13.8875
X-9.525Y13.7875
X-9.275Y13.8875
X-8.025Y10.7875
X-7.775Y10.8875
X-7.4625Y12.2875
X-7.2125Y12.3875
X-15.525Y13.7875
X-15.275Y13.8875
X-7.65Y13.0375
X-7.4Y13.1375
X-5.775Y11.5375
X-5.525Y11.6375
X-13.0875Y11.5375
X-12.8375Y11.6375
X-10.275Y13.7875
X-10.025Y13.8875
X-11.2125Y12.2875
X-10.9625Y12.3875
X-11.025Y13.7875
X-10.775Y13.8875
T3
G00X-15.8958Y14.1156
M15
G01X-15.8958Y14.0723
M16
G05
G00X-15.8958Y13.9286
M15
G01X-15.8958Y13.8852
M16
G05
G00X-15.6044Y14.1156
M15
G01X-15.6044Y14.0723
M16
G05
G00X-15.6044Y13.9286
M15
G01X-15.6044Y13.8852
M16
G05
T0
M30
