%TF.GenerationSoftware,KiCad,Pcbnew,5.1.6-c6e7f7d~87~ubuntu20.04.1*%
%TF.CreationDate,2020-07-22T13:43:27-07:00*%
%TF.ProjectId,keeb,6b656562-2e6b-4696-9361-645f70636258,rev?*%
%TF.SameCoordinates,Original*%
%TF.FileFunction,Soldermask,Top*%
%TF.FilePolarity,Negative*%
%FSLAX46Y46*%
G04 Gerber Fmt 4.6, Leading zero omitted, Abs format (unit mm)*
G04 Created by KiCad (PCBNEW 5.1.6-c6e7f7d~87~ubuntu20.04.1) date 2020-07-22 13:43:27*
%MOMM*%
%LPD*%
G01*
G04 APERTURE LIST*
%ADD10C,2.640000*%
%ADD11C,1.801800*%
%ADD12C,4.087800*%
%ADD13C,3.148000*%
%ADD14O,1.800000X2.899999*%
%ADD15O,1.300000X1.900000*%
%ADD16O,1.400000X2.500000*%
%ADD17C,1.300000*%
G04 APERTURE END LIST*
D10*
%TO.C,SW17*%
X-384810000Y331152500D03*
X-378460000Y333692500D03*
D11*
X-375920000Y328612500D03*
X-386080000Y328612500D03*
D12*
X-381000000Y328612500D03*
%TD*%
%TO.C,SW31*%
X-402461250Y309502500D03*
D10*
X-406271250Y312042500D03*
X-399921250Y314582500D03*
D11*
X-407541250Y309502500D03*
X-397381250Y309502500D03*
%TD*%
D10*
%TO.C,SW32*%
X-380047500Y312102500D03*
X-373697500Y314642500D03*
D11*
X-371157500Y309562500D03*
X-381317500Y309562500D03*
D12*
X-376237500Y309562500D03*
%TD*%
D10*
%TO.C,SW18*%
X-365760000Y331152500D03*
X-359410000Y333692500D03*
D11*
X-356870000Y328612500D03*
X-367030000Y328612500D03*
D12*
X-361950000Y328612500D03*
%TD*%
D11*
%TO.C,SW16*%
X-399734200Y328613880D03*
X-409894200Y328613880D03*
D10*
X-402274200Y333693880D03*
X-408624200Y331153880D03*
D12*
X-404814200Y328613880D03*
%TD*%
%TO.C,SW45*%
X-385730750Y282257500D03*
X-409606750Y282257500D03*
D13*
X-409606750Y297497500D03*
X-385730750Y297497500D03*
D11*
X-392588750Y290512500D03*
X-402748750Y290512500D03*
D10*
X-395128750Y295592500D03*
X-401478750Y293052500D03*
D12*
X-397668750Y290512500D03*
%TD*%
D10*
%TO.C,SW1*%
X-413385000Y350202500D03*
X-407035000Y352742500D03*
D11*
X-404495000Y347662500D03*
X-414655000Y347662500D03*
D12*
X-409575000Y347662500D03*
%TD*%
D10*
%TO.C,SW2*%
X-394335000Y350202500D03*
X-387985000Y352742500D03*
D11*
X-385445000Y347662500D03*
X-395605000Y347662500D03*
D12*
X-390525000Y347662500D03*
%TD*%
D11*
%TO.C,SW29*%
X-142557500Y328612500D03*
X-152717500Y328612500D03*
D10*
X-145097500Y333692500D03*
X-151447500Y331152500D03*
D12*
X-147637500Y328612500D03*
%TD*%
D10*
%TO.C,SW68*%
X-127635000Y274002500D03*
X-121285000Y276542500D03*
D11*
X-118745000Y271462500D03*
X-128905000Y271462500D03*
D12*
X-123825000Y271462500D03*
%TD*%
D10*
%TO.C,SW67*%
X-146685000Y274002500D03*
X-140335000Y276542500D03*
D11*
X-137795000Y271462500D03*
X-147955000Y271462500D03*
D12*
X-142875000Y271462500D03*
%TD*%
D10*
%TO.C,SW66*%
X-165735000Y274002500D03*
X-159385000Y276542500D03*
D11*
X-156845000Y271462500D03*
X-167005000Y271462500D03*
D12*
X-161925000Y271462500D03*
%TD*%
D10*
%TO.C,SW65*%
X-184785000Y274002500D03*
X-178435000Y276542500D03*
D11*
X-175895000Y271462500D03*
X-186055000Y271462500D03*
D12*
X-180975000Y271462500D03*
%TD*%
D10*
%TO.C,SW64*%
X-203835000Y274002500D03*
X-197485000Y276542500D03*
D11*
X-194945000Y271462500D03*
X-205105000Y271462500D03*
D12*
X-200025000Y271462500D03*
%TD*%
D10*
%TO.C,SW63*%
X-222885000Y274002500D03*
X-216535000Y276542500D03*
D11*
X-213995000Y271462500D03*
X-224155000Y271462500D03*
D12*
X-219075000Y271462500D03*
%TD*%
%TO.C,SW62*%
X-238093250Y279717500D03*
X-338169250Y279717500D03*
D13*
X-338169250Y264477500D03*
X-238093250Y264477500D03*
D11*
X-283051250Y271462500D03*
X-293211250Y271462500D03*
D10*
X-285591250Y276542500D03*
X-291941250Y274002500D03*
D12*
X-288131250Y271462500D03*
%TD*%
D11*
%TO.C,SW61*%
X-354488750Y271462500D03*
X-364648750Y271462500D03*
D10*
X-357028750Y276542500D03*
X-363378750Y274002500D03*
D12*
X-359568750Y271462500D03*
%TD*%
D11*
%TO.C,SW60*%
X-378301250Y271462500D03*
X-388461250Y271462500D03*
D10*
X-380841250Y276542500D03*
X-387191250Y274002500D03*
D12*
X-383381250Y271462500D03*
%TD*%
D11*
%TO.C,SW59*%
X-402113750Y271462500D03*
X-412273750Y271462500D03*
D10*
X-404653750Y276542500D03*
X-411003750Y274002500D03*
D12*
X-407193750Y271462500D03*
%TD*%
D10*
%TO.C,SW58*%
X-127635000Y293052500D03*
X-121285000Y295592500D03*
D11*
X-118745000Y290512500D03*
X-128905000Y290512500D03*
D12*
X-123825000Y290512500D03*
%TD*%
D10*
%TO.C,SW57*%
X-146685000Y293052500D03*
X-140335000Y295592500D03*
D11*
X-137795000Y290512500D03*
X-147955000Y290512500D03*
D12*
X-142875000Y290512500D03*
%TD*%
D11*
%TO.C,SW56*%
X-163988750Y290512500D03*
X-174148750Y290512500D03*
D10*
X-166528750Y295592500D03*
X-172878750Y293052500D03*
D12*
X-169068750Y290512500D03*
%TD*%
D10*
%TO.C,SW55*%
X-199072500Y293052500D03*
X-192722500Y295592500D03*
D11*
X-190182500Y290512500D03*
X-200342500Y290512500D03*
D12*
X-195262500Y290512500D03*
%TD*%
D10*
%TO.C,SW54*%
X-218122500Y293052500D03*
X-211772500Y295592500D03*
D11*
X-209232500Y290512500D03*
X-219392500Y290512500D03*
D12*
X-214312500Y290512500D03*
%TD*%
D10*
%TO.C,SW53*%
X-237172500Y293052500D03*
X-230822500Y295592500D03*
D11*
X-228282500Y290512500D03*
X-238442500Y290512500D03*
D12*
X-233362500Y290512500D03*
%TD*%
D10*
%TO.C,SW52*%
X-256222500Y293052500D03*
X-249872500Y295592500D03*
D11*
X-247332500Y290512500D03*
X-257492500Y290512500D03*
D12*
X-252412500Y290512500D03*
%TD*%
D10*
%TO.C,SW51*%
X-275272500Y293052500D03*
X-268922500Y295592500D03*
D11*
X-266382500Y290512500D03*
X-276542500Y290512500D03*
D12*
X-271462500Y290512500D03*
%TD*%
D10*
%TO.C,SW50*%
X-294322500Y293052500D03*
X-287972500Y295592500D03*
D11*
X-285432500Y290512500D03*
X-295592500Y290512500D03*
D12*
X-290512500Y290512500D03*
%TD*%
D10*
%TO.C,SW49*%
X-313372500Y293052500D03*
X-307022500Y295592500D03*
D11*
X-304482500Y290512500D03*
X-314642500Y290512500D03*
D12*
X-309562500Y290512500D03*
%TD*%
D10*
%TO.C,SW48*%
X-332422500Y293052500D03*
X-326072500Y295592500D03*
D11*
X-323532500Y290512500D03*
X-333692500Y290512500D03*
D12*
X-328612500Y290512500D03*
%TD*%
D10*
%TO.C,SW47*%
X-351472500Y293052500D03*
X-345122500Y295592500D03*
D11*
X-342582500Y290512500D03*
X-352742500Y290512500D03*
D12*
X-347662500Y290512500D03*
%TD*%
D10*
%TO.C,SW46*%
X-370522500Y293052500D03*
X-364172500Y295592500D03*
D11*
X-361632500Y290512500D03*
X-371792500Y290512500D03*
D12*
X-366712500Y290512500D03*
%TD*%
D10*
%TO.C,SW44*%
X-127635000Y312102500D03*
X-121285000Y314642500D03*
D11*
X-118745000Y309562500D03*
X-128905000Y309562500D03*
D12*
X-123825000Y309562500D03*
%TD*%
%TO.C,SW43*%
X-142843250Y301307500D03*
X-166719250Y301307500D03*
D13*
X-166719250Y316547500D03*
X-142843250Y316547500D03*
D11*
X-149701250Y309562500D03*
X-159861250Y309562500D03*
D10*
X-152241250Y314642500D03*
X-158591250Y312102500D03*
D12*
X-154781250Y309562500D03*
%TD*%
D10*
%TO.C,SW42*%
X-189547500Y312102500D03*
X-183197500Y314642500D03*
D11*
X-180657500Y309562500D03*
X-190817500Y309562500D03*
D12*
X-185737500Y309562500D03*
%TD*%
D10*
%TO.C,SW41*%
X-208597500Y312102500D03*
X-202247500Y314642500D03*
D11*
X-199707500Y309562500D03*
X-209867500Y309562500D03*
D12*
X-204787500Y309562500D03*
%TD*%
D10*
%TO.C,SW40*%
X-227647500Y312102500D03*
X-221297500Y314642500D03*
D11*
X-218757500Y309562500D03*
X-228917500Y309562500D03*
D12*
X-223837500Y309562500D03*
%TD*%
D10*
%TO.C,SW39*%
X-246697500Y312102500D03*
X-240347500Y314642500D03*
D11*
X-237807500Y309562500D03*
X-247967500Y309562500D03*
D12*
X-242887500Y309562500D03*
%TD*%
D10*
%TO.C,SW38*%
X-265747500Y312102500D03*
X-259397500Y314642500D03*
D11*
X-256857500Y309562500D03*
X-267017500Y309562500D03*
D12*
X-261937500Y309562500D03*
%TD*%
D10*
%TO.C,SW37*%
X-284797500Y312102500D03*
X-278447500Y314642500D03*
D11*
X-275907500Y309562500D03*
X-286067500Y309562500D03*
D12*
X-280987500Y309562500D03*
%TD*%
D10*
%TO.C,SW36*%
X-303847500Y312102500D03*
X-297497500Y314642500D03*
D11*
X-294957500Y309562500D03*
X-305117500Y309562500D03*
D12*
X-300037500Y309562500D03*
%TD*%
D10*
%TO.C,SW35*%
X-322897500Y312102500D03*
X-316547500Y314642500D03*
D11*
X-314007500Y309562500D03*
X-324167500Y309562500D03*
D12*
X-319087500Y309562500D03*
%TD*%
D10*
%TO.C,SW34*%
X-341947500Y312102500D03*
X-335597500Y314642500D03*
D11*
X-333057500Y309562500D03*
X-343217500Y309562500D03*
D12*
X-338137500Y309562500D03*
%TD*%
D10*
%TO.C,SW33*%
X-360997500Y312102500D03*
X-354647500Y314642500D03*
D11*
X-352107500Y309562500D03*
X-362267500Y309562500D03*
D12*
X-357187500Y309562500D03*
%TD*%
D10*
%TO.C,SW30*%
X-127635000Y331152500D03*
X-121285000Y333692500D03*
D11*
X-118745000Y328612500D03*
X-128905000Y328612500D03*
D12*
X-123825000Y328612500D03*
%TD*%
D10*
%TO.C,SW28*%
X-175260000Y331152500D03*
X-168910000Y333692500D03*
D11*
X-166370000Y328612500D03*
X-176530000Y328612500D03*
D12*
X-171450000Y328612500D03*
%TD*%
D10*
%TO.C,SW27*%
X-194310000Y331152500D03*
X-187960000Y333692500D03*
D11*
X-185420000Y328612500D03*
X-195580000Y328612500D03*
D12*
X-190500000Y328612500D03*
%TD*%
D10*
%TO.C,SW26*%
X-213360000Y331152500D03*
X-207010000Y333692500D03*
D11*
X-204470000Y328612500D03*
X-214630000Y328612500D03*
D12*
X-209550000Y328612500D03*
%TD*%
D10*
%TO.C,SW25*%
X-232410000Y331152500D03*
X-226060000Y333692500D03*
D11*
X-223520000Y328612500D03*
X-233680000Y328612500D03*
D12*
X-228600000Y328612500D03*
%TD*%
D10*
%TO.C,SW24*%
X-251460000Y331152500D03*
X-245110000Y333692500D03*
D11*
X-242570000Y328612500D03*
X-252730000Y328612500D03*
D12*
X-247650000Y328612500D03*
%TD*%
D10*
%TO.C,SW23*%
X-270510000Y331152500D03*
X-264160000Y333692500D03*
D11*
X-261620000Y328612500D03*
X-271780000Y328612500D03*
D12*
X-266700000Y328612500D03*
%TD*%
D10*
%TO.C,SW22*%
X-289560000Y331152500D03*
X-283210000Y333692500D03*
D11*
X-280670000Y328612500D03*
X-290830000Y328612500D03*
D12*
X-285750000Y328612500D03*
%TD*%
D10*
%TO.C,SW21*%
X-308610000Y331152500D03*
X-302260000Y333692500D03*
D11*
X-299720000Y328612500D03*
X-309880000Y328612500D03*
D12*
X-304800000Y328612500D03*
%TD*%
D10*
%TO.C,SW20*%
X-327660000Y331152500D03*
X-321310000Y333692500D03*
D11*
X-318770000Y328612500D03*
X-328930000Y328612500D03*
D12*
X-323850000Y328612500D03*
%TD*%
D10*
%TO.C,SW19*%
X-346710000Y331152500D03*
X-340360000Y333692500D03*
D11*
X-337820000Y328612500D03*
X-347980000Y328612500D03*
D12*
X-342900000Y328612500D03*
%TD*%
D10*
%TO.C,SW15*%
X-127635000Y350202500D03*
X-121285000Y352742500D03*
D11*
X-118745000Y347662500D03*
X-128905000Y347662500D03*
D12*
X-123825000Y347662500D03*
%TD*%
%TO.C,SW14*%
X-140462000Y339407500D03*
X-164338000Y339407500D03*
D13*
X-164338000Y354647500D03*
X-140462000Y354647500D03*
D11*
X-147320000Y347662500D03*
X-157480000Y347662500D03*
D10*
X-149860000Y352742500D03*
X-156210000Y350202500D03*
D12*
X-152400000Y347662500D03*
%TD*%
D10*
%TO.C,SW13*%
X-184785000Y350202500D03*
X-178435000Y352742500D03*
D11*
X-175895000Y347662500D03*
X-186055000Y347662500D03*
D12*
X-180975000Y347662500D03*
%TD*%
D10*
%TO.C,SW12*%
X-203835000Y350202500D03*
X-197485000Y352742500D03*
D11*
X-194945000Y347662500D03*
X-205105000Y347662500D03*
D12*
X-200025000Y347662500D03*
%TD*%
D10*
%TO.C,SW11*%
X-222885000Y350202500D03*
X-216535000Y352742500D03*
D11*
X-213995000Y347662500D03*
X-224155000Y347662500D03*
D12*
X-219075000Y347662500D03*
%TD*%
D10*
%TO.C,SW10*%
X-241935000Y350202500D03*
X-235585000Y352742500D03*
D11*
X-233045000Y347662500D03*
X-243205000Y347662500D03*
D12*
X-238125000Y347662500D03*
%TD*%
D10*
%TO.C,SW9*%
X-260985000Y350202500D03*
X-254635000Y352742500D03*
D11*
X-252095000Y347662500D03*
X-262255000Y347662500D03*
D12*
X-257175000Y347662500D03*
%TD*%
D10*
%TO.C,SW8*%
X-280035000Y350202500D03*
X-273685000Y352742500D03*
D11*
X-271145000Y347662500D03*
X-281305000Y347662500D03*
D12*
X-276225000Y347662500D03*
%TD*%
D10*
%TO.C,SW7*%
X-299085000Y350202500D03*
X-292735000Y352742500D03*
D11*
X-290195000Y347662500D03*
X-300355000Y347662500D03*
D12*
X-295275000Y347662500D03*
%TD*%
D10*
%TO.C,SW6*%
X-318135000Y350202500D03*
X-311785000Y352742500D03*
D11*
X-309245000Y347662500D03*
X-319405000Y347662500D03*
D12*
X-314325000Y347662500D03*
%TD*%
D10*
%TO.C,SW5*%
X-337185000Y350202500D03*
X-330835000Y352742500D03*
D11*
X-328295000Y347662500D03*
X-338455000Y347662500D03*
D12*
X-333375000Y347662500D03*
%TD*%
D10*
%TO.C,SW4*%
X-356235000Y350202500D03*
X-349885000Y352742500D03*
D11*
X-347345000Y347662500D03*
X-357505000Y347662500D03*
D12*
X-352425000Y347662500D03*
%TD*%
%TO.C,SW3*%
X-371475000Y347662500D03*
D11*
X-376555000Y347662500D03*
X-366395000Y347662500D03*
D10*
X-368935000Y352742500D03*
X-375285000Y350202500D03*
%TD*%
D14*
%TO.C,J1*%
X-403752540Y353235260D03*
X-403752540Y357985260D03*
X-396352540Y357985260D03*
X-396352540Y353235260D03*
D15*
X-400852540Y353535260D03*
X-399252540Y353535260D03*
X-398452540Y351735260D03*
X-400052540Y351735260D03*
X-401652540Y351735260D03*
D16*
X-403752540Y357985260D03*
X-396352540Y357985260D03*
X-403752540Y353235260D03*
X-396352540Y353235260D03*
D17*
X-399252540Y353235260D03*
X-400852540Y353235260D03*
X-401652540Y352035260D03*
X-398452540Y352035260D03*
X-400052540Y352035260D03*
%TD*%
M02*
