%TF.GenerationSoftware,KiCad,Pcbnew,5.1.6-c6e7f7d~87~ubuntu20.04.1*%
%TF.CreationDate,2020-07-22T13:43:27-07:00*%
%TF.ProjectId,keeb,6b656562-2e6b-4696-9361-645f70636258,rev?*%
%TF.SameCoordinates,Original*%
%TF.FileFunction,Legend,Top*%
%TF.FilePolarity,Positive*%
%FSLAX46Y46*%
G04 Gerber Fmt 4.6, Leading zero omitted, Abs format (unit mm)*
G04 Created by KiCad (PCBNEW 5.1.6-c6e7f7d~87~ubuntu20.04.1) date 2020-07-22 13:43:27*
%MOMM*%
%LPD*%
G01*
G04 APERTURE LIST*
%ADD10C,0.150000*%
G04 APERTURE END LIST*
D10*
X-276320000Y267427619D02*
X-276320000Y268427619D01*
X-276081904Y268427619D01*
X-275939047Y268380000D01*
X-275843809Y268284761D01*
X-275796190Y268189523D01*
X-275748571Y267999047D01*
X-275748571Y267856190D01*
X-275796190Y267665714D01*
X-275843809Y267570476D01*
X-275939047Y267475238D01*
X-276081904Y267427619D01*
X-276320000Y267427619D01*
X-274939047Y267475238D02*
X-275034285Y267427619D01*
X-275224761Y267427619D01*
X-275320000Y267475238D01*
X-275367619Y267570476D01*
X-275367619Y267951428D01*
X-275320000Y268046666D01*
X-275224761Y268094285D01*
X-275034285Y268094285D01*
X-274939047Y268046666D01*
X-274891428Y267951428D01*
X-274891428Y267856190D01*
X-275367619Y267760952D01*
X-274510476Y267475238D02*
X-274415238Y267427619D01*
X-274224761Y267427619D01*
X-274129523Y267475238D01*
X-274081904Y267570476D01*
X-274081904Y267618095D01*
X-274129523Y267713333D01*
X-274224761Y267760952D01*
X-274367619Y267760952D01*
X-274462857Y267808571D01*
X-274510476Y267903809D01*
X-274510476Y267951428D01*
X-274462857Y268046666D01*
X-274367619Y268094285D01*
X-274224761Y268094285D01*
X-274129523Y268046666D01*
X-273653333Y267427619D02*
X-273653333Y268094285D01*
X-273653333Y268427619D02*
X-273700952Y268380000D01*
X-273653333Y268332380D01*
X-273605714Y268380000D01*
X-273653333Y268427619D01*
X-273653333Y268332380D01*
X-272748571Y268094285D02*
X-272748571Y267284761D01*
X-272796190Y267189523D01*
X-272843809Y267141904D01*
X-272939047Y267094285D01*
X-273081904Y267094285D01*
X-273177142Y267141904D01*
X-272748571Y267475238D02*
X-272843809Y267427619D01*
X-273034285Y267427619D01*
X-273129523Y267475238D01*
X-273177142Y267522857D01*
X-273224761Y267618095D01*
X-273224761Y267903809D01*
X-273177142Y267999047D01*
X-273129523Y268046666D01*
X-273034285Y268094285D01*
X-272843809Y268094285D01*
X-272748571Y268046666D01*
X-272272380Y268094285D02*
X-272272380Y267427619D01*
X-272272380Y267999047D02*
X-272224761Y268046666D01*
X-272129523Y268094285D01*
X-271986666Y268094285D01*
X-271891428Y268046666D01*
X-271843809Y267951428D01*
X-271843809Y267427619D01*
X-270986666Y267475238D02*
X-271081904Y267427619D01*
X-271272380Y267427619D01*
X-271367619Y267475238D01*
X-271415238Y267570476D01*
X-271415238Y267951428D01*
X-271367619Y268046666D01*
X-271272380Y268094285D01*
X-271081904Y268094285D01*
X-270986666Y268046666D01*
X-270939047Y267951428D01*
X-270939047Y267856190D01*
X-271415238Y267760952D01*
X-270081904Y267427619D02*
X-270081904Y268427619D01*
X-270081904Y267475238D02*
X-270177142Y267427619D01*
X-270367619Y267427619D01*
X-270462857Y267475238D01*
X-270510476Y267522857D01*
X-270558095Y267618095D01*
X-270558095Y267903809D01*
X-270510476Y267999047D01*
X-270462857Y268046666D01*
X-270367619Y268094285D01*
X-270177142Y268094285D01*
X-270081904Y268046666D01*
X-268986666Y268094285D02*
X-268605714Y268094285D01*
X-268843809Y267427619D02*
X-268843809Y268284761D01*
X-268796190Y268380000D01*
X-268700952Y268427619D01*
X-268605714Y268427619D01*
X-268129523Y267427619D02*
X-268224761Y267475238D01*
X-268272380Y267522857D01*
X-268320000Y267618095D01*
X-268320000Y267903809D01*
X-268272380Y267999047D01*
X-268224761Y268046666D01*
X-268129523Y268094285D01*
X-267986666Y268094285D01*
X-267891428Y268046666D01*
X-267843809Y267999047D01*
X-267796190Y267903809D01*
X-267796190Y267618095D01*
X-267843809Y267522857D01*
X-267891428Y267475238D01*
X-267986666Y267427619D01*
X-268129523Y267427619D01*
X-267367619Y267427619D02*
X-267367619Y268094285D01*
X-267367619Y267903809D02*
X-267320000Y267999047D01*
X-267272380Y268046666D01*
X-267177142Y268094285D01*
X-267081904Y268094285D01*
X-266034285Y267475238D02*
X-265891428Y267427619D01*
X-265653333Y267427619D01*
X-265558095Y267475238D01*
X-265510476Y267522857D01*
X-265462857Y267618095D01*
X-265462857Y267713333D01*
X-265510476Y267808571D01*
X-265558095Y267856190D01*
X-265653333Y267903809D01*
X-265843809Y267951428D01*
X-265939047Y267999047D01*
X-265986666Y268046666D01*
X-266034285Y268141904D01*
X-266034285Y268237142D01*
X-265986666Y268332380D01*
X-265939047Y268380000D01*
X-265843809Y268427619D01*
X-265605714Y268427619D01*
X-265462857Y268380000D01*
X-264605714Y268094285D02*
X-264605714Y267427619D01*
X-265034285Y268094285D02*
X-265034285Y267570476D01*
X-264986666Y267475238D01*
X-264891428Y267427619D01*
X-264748571Y267427619D01*
X-264653333Y267475238D01*
X-264605714Y267522857D01*
X-264129523Y267427619D02*
X-264129523Y268094285D01*
X-264129523Y267999047D02*
X-264081904Y268046666D01*
X-263986666Y268094285D01*
X-263843809Y268094285D01*
X-263748571Y268046666D01*
X-263700952Y267951428D01*
X-263700952Y267427619D01*
X-263700952Y267951428D02*
X-263653333Y268046666D01*
X-263558095Y268094285D01*
X-263415238Y268094285D01*
X-263320000Y268046666D01*
X-263272380Y267951428D01*
X-263272380Y267427619D01*
X-262796190Y267427619D02*
X-262796190Y268094285D01*
X-262796190Y267999047D02*
X-262748571Y268046666D01*
X-262653333Y268094285D01*
X-262510476Y268094285D01*
X-262415238Y268046666D01*
X-262367619Y267951428D01*
X-262367619Y267427619D01*
X-262367619Y267951428D02*
X-262320000Y268046666D01*
X-262224761Y268094285D01*
X-262081904Y268094285D01*
X-261986666Y268046666D01*
X-261939047Y267951428D01*
X-261939047Y267427619D01*
X-261081904Y267475238D02*
X-261177142Y267427619D01*
X-261367619Y267427619D01*
X-261462857Y267475238D01*
X-261510476Y267570476D01*
X-261510476Y267951428D01*
X-261462857Y268046666D01*
X-261367619Y268094285D01*
X-261177142Y268094285D01*
X-261081904Y268046666D01*
X-261034285Y267951428D01*
X-261034285Y267856190D01*
X-261510476Y267760952D01*
X-260605714Y267427619D02*
X-260605714Y268094285D01*
X-260605714Y267903809D02*
X-260558095Y267999047D01*
X-260510476Y268046666D01*
X-260415238Y268094285D01*
X-260320000Y268094285D01*
X-259081904Y267427619D02*
X-259177142Y267475238D01*
X-259224761Y267522857D01*
X-259272380Y267618095D01*
X-259272380Y267903809D01*
X-259224761Y267999047D01*
X-259177142Y268046666D01*
X-259081904Y268094285D01*
X-258939047Y268094285D01*
X-258843809Y268046666D01*
X-258796190Y267999047D01*
X-258748571Y267903809D01*
X-258748571Y267618095D01*
X-258796190Y267522857D01*
X-258843809Y267475238D01*
X-258939047Y267427619D01*
X-259081904Y267427619D01*
X-258462857Y268094285D02*
X-258081904Y268094285D01*
X-258320000Y267427619D02*
X-258320000Y268284761D01*
X-258272380Y268380000D01*
X-258177142Y268427619D01*
X-258081904Y268427619D01*
X-256986666Y267427619D02*
X-256986666Y268427619D01*
X-256653333Y267713333D01*
X-256320000Y268427619D01*
X-256320000Y267427619D01*
X-255415238Y267427619D02*
X-255415238Y267951428D01*
X-255462857Y268046666D01*
X-255558095Y268094285D01*
X-255748571Y268094285D01*
X-255843809Y268046666D01*
X-255415238Y267475238D02*
X-255510476Y267427619D01*
X-255748571Y267427619D01*
X-255843809Y267475238D01*
X-255891428Y267570476D01*
X-255891428Y267665714D01*
X-255843809Y267760952D01*
X-255748571Y267808571D01*
X-255510476Y267808571D01*
X-255415238Y267856190D01*
X-254939047Y267427619D02*
X-254939047Y268427619D01*
X-254843809Y267808571D02*
X-254558095Y267427619D01*
X-254558095Y268094285D02*
X-254939047Y267713333D01*
X-254129523Y267427619D02*
X-254129523Y268094285D01*
X-254129523Y268427619D02*
X-254177142Y268380000D01*
X-254129523Y268332380D01*
X-254081904Y268380000D01*
X-254129523Y268427619D01*
X-254129523Y268332380D01*
X-253653333Y268094285D02*
X-253653333Y267427619D01*
X-253653333Y267999047D02*
X-253605714Y268046666D01*
X-253510476Y268094285D01*
X-253367619Y268094285D01*
X-253272380Y268046666D01*
X-253224761Y267951428D01*
X-253224761Y267427619D01*
X-252320000Y268094285D02*
X-252320000Y267284761D01*
X-252367619Y267189523D01*
X-252415238Y267141904D01*
X-252510476Y267094285D01*
X-252653333Y267094285D01*
X-252748571Y267141904D01*
X-252320000Y267475238D02*
X-252415238Y267427619D01*
X-252605714Y267427619D01*
X-252700952Y267475238D01*
X-252748571Y267522857D01*
X-252796190Y267618095D01*
X-252796190Y267903809D01*
X-252748571Y267999047D01*
X-252700952Y268046666D01*
X-252605714Y268094285D01*
X-252415238Y268094285D01*
X-252320000Y268046666D01*
X-276320000Y270150952D02*
X-276320000Y278150952D01*
X-271748571Y270150952D01*
X-271748571Y278150952D01*
X-267939047Y270150952D02*
X-267939047Y278150952D01*
X-264129523Y270150952D02*
X-264129523Y278150952D01*
X-259558095Y270150952D01*
X-259558095Y278150952D01*
X-252320000Y278150952D02*
X-253843809Y278150952D01*
X-254605714Y277770000D01*
X-254986666Y277389047D01*
X-255748571Y276246190D01*
X-256129523Y274722380D01*
X-256129523Y271674761D01*
X-255748571Y270912857D01*
X-255367619Y270531904D01*
X-254605714Y270150952D01*
X-253081904Y270150952D01*
X-252320000Y270531904D01*
X-251939047Y270912857D01*
X-251558095Y271674761D01*
X-251558095Y273579523D01*
X-251939047Y274341428D01*
X-252320000Y274722380D01*
X-253081904Y275103333D01*
X-254605714Y275103333D01*
X-255367619Y274722380D01*
X-255748571Y274341428D01*
X-256129523Y273579523D01*
X-246986666Y274722380D02*
X-247748571Y275103333D01*
X-248129523Y275484285D01*
X-248510476Y276246190D01*
X-248510476Y276627142D01*
X-248129523Y277389047D01*
X-247748571Y277770000D01*
X-246986666Y278150952D01*
X-245462857Y278150952D01*
X-244700952Y277770000D01*
X-244320000Y277389047D01*
X-243939047Y276627142D01*
X-243939047Y276246190D01*
X-244320000Y275484285D01*
X-244700952Y275103333D01*
X-245462857Y274722380D01*
X-246986666Y274722380D01*
X-247748571Y274341428D01*
X-248129523Y273960476D01*
X-248510476Y273198571D01*
X-248510476Y271674761D01*
X-248129523Y270912857D01*
X-247748571Y270531904D01*
X-246986666Y270150952D01*
X-245462857Y270150952D01*
X-244700952Y270531904D01*
X-244320000Y270912857D01*
X-243939047Y271674761D01*
X-243939047Y273198571D01*
X-244320000Y273960476D01*
X-244700952Y274341428D01*
X-245462857Y274722380D01*
M02*
