M48
; DRILL file {KiCad 5.1.6-c6e7f7d~87~ubuntu20.04.1} date Sat Jul 18 14:20:22 2020
; FORMAT={-:-/ absolute / inch / decimal}
; #@! TF.CreationDate,2020-07-18T14:20:22-07:00
; #@! TF.GenerationSoftware,Kicad,Pcbnew,5.1.6-c6e7f7d~87~ubuntu20.04.1
; #@! TF.FileFunction,NonPlated,1,2,NPTH
FMAT,2
INCH
T1C0.0670
T2C0.1200
T3C0.1570
%
G90
G05
T1
X-12.3875Y11.4375
X-11.9875Y11.4375
X-7.325Y10.6875
X-6.925Y10.6875
X-15.8562Y11.4375
X-15.4562Y11.4375
X-9.7625Y12.1875
X-9.3625Y12.1875
X-12.7625Y12.1875
X-12.3625Y12.1875
X-9.95Y12.9375
X-9.55Y12.9375
X-13.325Y13.6875
X-12.925Y13.6875
X-16.0449Y12.1851
X-15.6449Y12.1851
X-6.2938Y12.1875
X-5.8937Y12.1875
X-6.95Y12.9375
X-6.55Y12.9375
X-16.325Y13.6875
X-15.925Y13.6875
X-11.825Y13.6875
X-11.425Y13.6875
X-12.2Y12.9375
X-11.8Y12.9375
X-6.2Y13.6875
X-5.8Y13.6875
X-10.1375Y11.4375
X-9.7375Y11.4375
X-8.825Y13.6875
X-8.425Y13.6875
X-14.075Y13.6875
X-13.675Y13.6875
X-13.1375Y11.4375
X-12.7375Y11.4375
X-10.5125Y12.1875
X-10.1125Y12.1875
X-13.5125Y12.1875
X-13.1125Y12.1875
X-6.8563Y11.4375
X-6.4562Y11.4375
X-5.825Y10.6875
X-5.425Y10.6875
X-16.2312Y10.6875
X-15.8312Y10.6875
X-7.5125Y12.1875
X-7.1125Y12.1875
X-14.825Y13.6875
X-14.425Y13.6875
X-8.075Y10.6875
X-7.675Y10.6875
X-13.8875Y11.4375
X-13.4875Y11.4375
X-11.5437Y10.6875
X-11.1437Y10.6875
X-6.0125Y12.9375
X-5.6125Y12.9375
X-12.95Y12.9375
X-12.55Y12.9375
X-15.575Y13.6875
X-15.175Y13.6875
X-10.7Y12.9375
X-10.3Y12.9375
X-7.7Y12.9375
X-7.3Y12.9375
X-10.8875Y11.4375
X-10.4875Y11.4375
X-8.825Y10.6875
X-8.425Y10.6875
X-9.575Y13.6875
X-9.175Y13.6875
X-15.2Y12.9375
X-14.8Y12.9375
X-16.1376Y12.9376
X-15.7376Y12.9376
X-11.2625Y12.1875
X-10.8625Y12.1875
X-7.325Y13.6875
X-6.925Y13.6875
X-7.8875Y11.4375
X-7.4875Y11.4375
X-13.7Y12.9375
X-13.3Y12.9375
X-8.2625Y12.1875
X-7.8625Y12.1875
X-6.575Y10.6875
X-6.175Y10.6875
X-8.45Y12.9375
X-8.05Y12.9375
X-14.6375Y11.4375
X-14.2375Y11.4375
X-5.075Y11.4375
X-4.675Y11.4375
X-14.2625Y12.1875
X-13.8625Y12.1875
X-14.3562Y10.6875
X-13.9562Y10.6875
X-8.6375Y11.4375
X-8.2375Y11.4375
X-10.325Y13.6875
X-9.925Y13.6875
X-9.2Y12.9375
X-8.8Y12.9375
X-15.0125Y12.1875
X-14.6125Y12.1875
X-8.075Y13.6875
X-7.675Y13.6875
X-12.575Y13.6875
X-12.175Y13.6875
X-11.45Y12.9375
X-11.05Y12.9375
X-11.6375Y11.4375
X-11.2375Y11.4375
X-9.0125Y12.1875
X-8.6125Y12.1875
X-11.075Y13.6875
X-10.675Y13.6875
X-12.0125Y12.1875
X-11.6125Y12.1875
X-5.075Y12.9375
X-4.675Y12.9375
X-5.075Y12.1875
X-4.675Y12.1875
X-5.075Y13.6875
X-4.675Y13.6875
X-5.075Y10.6875
X-4.675Y10.6875
X-5.825Y11.4375
X-5.425Y11.4375
X-15.2937Y10.6875
X-14.8937Y10.6875
X-9.3875Y11.4375
X-8.9875Y11.4375
X-14.45Y12.9375
X-14.05Y12.9375
T2
X-16.1262Y11.7125
X-15.1862Y11.7125
X-6.5637Y12.4625
X-5.6238Y12.4625
X-6.47Y13.9625
X-5.53Y13.9625
X-13.3137Y10.4125
X-9.3737Y10.4125
T3
X-10.5Y12.9375
X-7.5Y12.9375
X-10.6875Y11.4375
X-8.625Y10.6875
X-9.375Y13.6875
X-15.0Y12.9375
X-15.9376Y12.9376
X-11.0625Y12.1875
X-7.125Y13.6875
X-7.6875Y11.4375
X-13.5Y12.9375
X-8.0625Y12.1875
X-6.375Y10.6875
X-8.25Y12.9375
X-14.4375Y11.4375
X-4.875Y11.4375
X-14.0625Y12.1875
X-14.1562Y10.6875
X-8.4375Y11.4375
X-10.125Y13.6875
X-9.0Y12.9375
X-14.8125Y12.1875
X-7.875Y13.6875
X-12.375Y13.6875
X-11.25Y12.9375
X-11.4375Y11.4375
X-8.8125Y12.1875
X-10.875Y13.6875
X-11.8125Y12.1875
X-4.875Y12.9375
X-4.875Y12.1875
X-4.875Y13.6875
X-4.875Y10.6875
X-5.625Y11.4375
X-15.0938Y10.6875
X-9.1875Y11.4375
X-14.25Y12.9375
X-12.1875Y11.4375
X-7.125Y10.6875
X-16.1262Y11.1125
X-15.6562Y11.4375
X-15.1862Y11.1125
X-9.5625Y12.1875
X-12.5625Y12.1875
X-9.75Y12.9375
X-13.125Y13.6875
X-15.8449Y12.1851
X-6.5637Y11.8625
X-6.0938Y12.1875
X-5.6238Y11.8625
X-6.75Y12.9375
X-16.125Y13.6875
X-11.625Y13.6875
X-12.0Y12.9375
X-6.47Y13.3625
X-6.0Y13.6875
X-5.53Y13.3625
X-9.9375Y11.4375
X-8.625Y13.6875
X-13.875Y13.6875
X-12.9375Y11.4375
X-10.3125Y12.1875
X-13.3125Y12.1875
X-6.6562Y11.4375
X-5.625Y10.6875
X-16.0312Y10.6875
X-7.3125Y12.1875
X-14.625Y13.6875
X-7.875Y10.6875
X-13.6875Y11.4375
X-13.3137Y11.0125
X-11.3438Y10.6875
X-9.3737Y11.0125
X-5.8125Y12.9375
X-12.75Y12.9375
X-15.375Y13.6875
T0
M30
