%TF.GenerationSoftware,KiCad,Pcbnew,5.1.6-c6e7f7d~87~ubuntu20.04.1*%
%TF.CreationDate,2020-07-18T14:20:17-07:00*%
%TF.ProjectId,mrkeebstutorial,6d726b65-6562-4737-9475-746f7269616c,rev?*%
%TF.SameCoordinates,Original*%
%TF.FileFunction,Legend,Bot*%
%TF.FilePolarity,Positive*%
%FSLAX46Y46*%
G04 Gerber Fmt 4.6, Leading zero omitted, Abs format (unit mm)*
G04 Created by KiCad (PCBNEW 5.1.6-c6e7f7d~87~ubuntu20.04.1) date 2020-07-18 14:20:17*
%MOMM*%
%LPD*%
G01*
G04 APERTURE LIST*
%ADD10C,0.150000*%
%ADD11C,0.120000*%
%ADD12C,0.100000*%
G04 APERTURE END LIST*
D10*
%TO.C,U1*%
X-383613031Y318680914D02*
X-382711470Y317779352D01*
X-390525000Y326406055D02*
X-390047703Y325928758D01*
X-397843555Y319087500D02*
X-397366258Y318610203D01*
X-390525000Y311768945D02*
X-391002297Y312246242D01*
X-383206445Y319087500D02*
X-383683742Y319564797D01*
X-390525000Y311768945D02*
X-390047703Y312246242D01*
X-397843555Y319087500D02*
X-397366258Y319564797D01*
X-390525000Y326406055D02*
X-391002297Y325928758D01*
X-383206445Y319087500D02*
X-383613031Y318680914D01*
%TO.C,SWP1*%
X-371000000Y332437500D02*
G75*
G03*
X-371000000Y332437500I-1000000J0D01*
G01*
X-374600000Y335037500D02*
X-374600000Y329837500D01*
X-369400000Y335037500D02*
X-374600000Y335037500D01*
X-369400000Y329837500D02*
X-369400000Y335037500D01*
X-374600000Y329837500D02*
X-369400000Y329837500D01*
D11*
%TO.C,C5*%
X-372147500Y327401248D02*
X-372147500Y327923752D01*
X-370727500Y327401248D02*
X-370727500Y327923752D01*
D10*
%TO.C,D20*%
X-327021875Y320568750D02*
X-327821875Y320568750D01*
X-326521875Y319568788D02*
X-326521875Y320068750D01*
X-327021875Y319068750D02*
X-327821875Y319068750D01*
X-328321875Y320068712D02*
X-328321875Y319568750D01*
D12*
G36*
X-327421875Y321068750D02*
G01*
X-326821875Y321868750D01*
X-328021875Y321868750D01*
X-327421875Y321068750D01*
G37*
X-327421875Y321068750D02*
X-326821875Y321868750D01*
X-328021875Y321868750D01*
X-327421875Y321068750D01*
D10*
X-326521875Y320068750D02*
G75*
G03*
X-327021875Y320568750I-500000J0D01*
G01*
X-327021875Y319068750D02*
G75*
G03*
X-326521875Y319568750I0J500000D01*
G01*
X-328321875Y319568750D02*
G75*
G03*
X-327821875Y319068750I500000J0D01*
G01*
X-327821875Y320568750D02*
G75*
G03*
X-328321875Y320068750I0J-500000D01*
G01*
%TO.C,D68*%
X-126996875Y263418750D02*
X-127796875Y263418750D01*
X-126496875Y262418788D02*
X-126496875Y262918750D01*
X-126996875Y261918750D02*
X-127796875Y261918750D01*
X-128296875Y262918712D02*
X-128296875Y262418750D01*
D12*
G36*
X-127396875Y263918750D02*
G01*
X-126796875Y264718750D01*
X-127996875Y264718750D01*
X-127396875Y263918750D01*
G37*
X-127396875Y263918750D02*
X-126796875Y264718750D01*
X-127996875Y264718750D01*
X-127396875Y263918750D01*
D10*
X-126496875Y262918750D02*
G75*
G03*
X-126996875Y263418750I-500000J0D01*
G01*
X-126996875Y261918750D02*
G75*
G03*
X-126496875Y262418750I0J500000D01*
G01*
X-128296875Y262418750D02*
G75*
G03*
X-127796875Y261918750I500000J0D01*
G01*
X-127796875Y263418750D02*
G75*
G03*
X-128296875Y262918750I0J-500000D01*
G01*
%TO.C,D67*%
X-146046875Y263418750D02*
X-146846875Y263418750D01*
X-145546875Y262418788D02*
X-145546875Y262918750D01*
X-146046875Y261918750D02*
X-146846875Y261918750D01*
X-147346875Y262918712D02*
X-147346875Y262418750D01*
D12*
G36*
X-146446875Y263918750D02*
G01*
X-145846875Y264718750D01*
X-147046875Y264718750D01*
X-146446875Y263918750D01*
G37*
X-146446875Y263918750D02*
X-145846875Y264718750D01*
X-147046875Y264718750D01*
X-146446875Y263918750D01*
D10*
X-145546875Y262918750D02*
G75*
G03*
X-146046875Y263418750I-500000J0D01*
G01*
X-146046875Y261918750D02*
G75*
G03*
X-145546875Y262418750I0J500000D01*
G01*
X-147346875Y262418750D02*
G75*
G03*
X-146846875Y261918750I500000J0D01*
G01*
X-146846875Y263418750D02*
G75*
G03*
X-147346875Y262918750I0J-500000D01*
G01*
%TO.C,D66*%
X-165096875Y263418750D02*
X-165896875Y263418750D01*
X-164596875Y262418788D02*
X-164596875Y262918750D01*
X-165096875Y261918750D02*
X-165896875Y261918750D01*
X-166396875Y262918712D02*
X-166396875Y262418750D01*
D12*
G36*
X-165496875Y263918750D02*
G01*
X-164896875Y264718750D01*
X-166096875Y264718750D01*
X-165496875Y263918750D01*
G37*
X-165496875Y263918750D02*
X-164896875Y264718750D01*
X-166096875Y264718750D01*
X-165496875Y263918750D01*
D10*
X-164596875Y262918750D02*
G75*
G03*
X-165096875Y263418750I-500000J0D01*
G01*
X-165096875Y261918750D02*
G75*
G03*
X-164596875Y262418750I0J500000D01*
G01*
X-166396875Y262418750D02*
G75*
G03*
X-165896875Y261918750I500000J0D01*
G01*
X-165896875Y263418750D02*
G75*
G03*
X-166396875Y262918750I0J-500000D01*
G01*
%TO.C,D65*%
X-184146875Y263418750D02*
X-184946875Y263418750D01*
X-183646875Y262418788D02*
X-183646875Y262918750D01*
X-184146875Y261918750D02*
X-184946875Y261918750D01*
X-185446875Y262918712D02*
X-185446875Y262418750D01*
D12*
G36*
X-184546875Y263918750D02*
G01*
X-183946875Y264718750D01*
X-185146875Y264718750D01*
X-184546875Y263918750D01*
G37*
X-184546875Y263918750D02*
X-183946875Y264718750D01*
X-185146875Y264718750D01*
X-184546875Y263918750D01*
D10*
X-183646875Y262918750D02*
G75*
G03*
X-184146875Y263418750I-500000J0D01*
G01*
X-184146875Y261918750D02*
G75*
G03*
X-183646875Y262418750I0J500000D01*
G01*
X-185446875Y262418750D02*
G75*
G03*
X-184946875Y261918750I500000J0D01*
G01*
X-184946875Y263418750D02*
G75*
G03*
X-185446875Y262918750I0J-500000D01*
G01*
%TO.C,D64*%
X-203196875Y263418750D02*
X-203996875Y263418750D01*
X-202696875Y262418788D02*
X-202696875Y262918750D01*
X-203196875Y261918750D02*
X-203996875Y261918750D01*
X-204496875Y262918712D02*
X-204496875Y262418750D01*
D12*
G36*
X-203596875Y263918750D02*
G01*
X-202996875Y264718750D01*
X-204196875Y264718750D01*
X-203596875Y263918750D01*
G37*
X-203596875Y263918750D02*
X-202996875Y264718750D01*
X-204196875Y264718750D01*
X-203596875Y263918750D01*
D10*
X-202696875Y262918750D02*
G75*
G03*
X-203196875Y263418750I-500000J0D01*
G01*
X-203196875Y261918750D02*
G75*
G03*
X-202696875Y262418750I0J500000D01*
G01*
X-204496875Y262418750D02*
G75*
G03*
X-203996875Y261918750I500000J0D01*
G01*
X-203996875Y263418750D02*
G75*
G03*
X-204496875Y262918750I0J-500000D01*
G01*
%TO.C,D63*%
X-222246875Y263418750D02*
X-223046875Y263418750D01*
X-221746875Y262418788D02*
X-221746875Y262918750D01*
X-222246875Y261918750D02*
X-223046875Y261918750D01*
X-223546875Y262918712D02*
X-223546875Y262418750D01*
D12*
G36*
X-222646875Y263918750D02*
G01*
X-222046875Y264718750D01*
X-223246875Y264718750D01*
X-222646875Y263918750D01*
G37*
X-222646875Y263918750D02*
X-222046875Y264718750D01*
X-223246875Y264718750D01*
X-222646875Y263918750D01*
D10*
X-221746875Y262918750D02*
G75*
G03*
X-222246875Y263418750I-500000J0D01*
G01*
X-222246875Y261918750D02*
G75*
G03*
X-221746875Y262418750I0J500000D01*
G01*
X-223546875Y262418750D02*
G75*
G03*
X-223046875Y261918750I500000J0D01*
G01*
X-223046875Y263418750D02*
G75*
G03*
X-223546875Y262918750I0J-500000D01*
G01*
%TO.C,D62*%
X-291303125Y263418750D02*
X-292103125Y263418750D01*
X-290803125Y262418788D02*
X-290803125Y262918750D01*
X-291303125Y261918750D02*
X-292103125Y261918750D01*
X-292603125Y262918712D02*
X-292603125Y262418750D01*
D12*
G36*
X-291703125Y263918750D02*
G01*
X-291103125Y264718750D01*
X-292303125Y264718750D01*
X-291703125Y263918750D01*
G37*
X-291703125Y263918750D02*
X-291103125Y264718750D01*
X-292303125Y264718750D01*
X-291703125Y263918750D01*
D10*
X-290803125Y262918750D02*
G75*
G03*
X-291303125Y263418750I-500000J0D01*
G01*
X-291303125Y261918750D02*
G75*
G03*
X-290803125Y262418750I0J500000D01*
G01*
X-292603125Y262418750D02*
G75*
G03*
X-292103125Y261918750I500000J0D01*
G01*
X-292103125Y263418750D02*
G75*
G03*
X-292603125Y262918750I0J-500000D01*
G01*
%TO.C,D61*%
X-362740625Y263418750D02*
X-363540625Y263418750D01*
X-362240625Y262418788D02*
X-362240625Y262918750D01*
X-362740625Y261918750D02*
X-363540625Y261918750D01*
X-364040625Y262918712D02*
X-364040625Y262418750D01*
D12*
G36*
X-363140625Y263918750D02*
G01*
X-362540625Y264718750D01*
X-363740625Y264718750D01*
X-363140625Y263918750D01*
G37*
X-363140625Y263918750D02*
X-362540625Y264718750D01*
X-363740625Y264718750D01*
X-363140625Y263918750D01*
D10*
X-362240625Y262918750D02*
G75*
G03*
X-362740625Y263418750I-500000J0D01*
G01*
X-362740625Y261918750D02*
G75*
G03*
X-362240625Y262418750I0J500000D01*
G01*
X-364040625Y262418750D02*
G75*
G03*
X-363540625Y261918750I500000J0D01*
G01*
X-363540625Y263418750D02*
G75*
G03*
X-364040625Y262918750I0J-500000D01*
G01*
%TO.C,D60*%
X-386553125Y263418750D02*
X-387353125Y263418750D01*
X-386053125Y262418788D02*
X-386053125Y262918750D01*
X-386553125Y261918750D02*
X-387353125Y261918750D01*
X-387853125Y262918712D02*
X-387853125Y262418750D01*
D12*
G36*
X-386953125Y263918750D02*
G01*
X-386353125Y264718750D01*
X-387553125Y264718750D01*
X-386953125Y263918750D01*
G37*
X-386953125Y263918750D02*
X-386353125Y264718750D01*
X-387553125Y264718750D01*
X-386953125Y263918750D01*
D10*
X-386053125Y262918750D02*
G75*
G03*
X-386553125Y263418750I-500000J0D01*
G01*
X-386553125Y261918750D02*
G75*
G03*
X-386053125Y262418750I0J500000D01*
G01*
X-387853125Y262418750D02*
G75*
G03*
X-387353125Y261918750I500000J0D01*
G01*
X-387353125Y263418750D02*
G75*
G03*
X-387853125Y262918750I0J-500000D01*
G01*
%TO.C,D59*%
X-410365625Y263418750D02*
X-411165625Y263418750D01*
X-409865625Y262418788D02*
X-409865625Y262918750D01*
X-410365625Y261918750D02*
X-411165625Y261918750D01*
X-411665625Y262918712D02*
X-411665625Y262418750D01*
D12*
G36*
X-410765625Y263918750D02*
G01*
X-410165625Y264718750D01*
X-411365625Y264718750D01*
X-410765625Y263918750D01*
G37*
X-410765625Y263918750D02*
X-410165625Y264718750D01*
X-411365625Y264718750D01*
X-410765625Y263918750D01*
D10*
X-409865625Y262918750D02*
G75*
G03*
X-410365625Y263418750I-500000J0D01*
G01*
X-410365625Y261918750D02*
G75*
G03*
X-409865625Y262418750I0J500000D01*
G01*
X-411665625Y262418750D02*
G75*
G03*
X-411165625Y261918750I500000J0D01*
G01*
X-411165625Y263418750D02*
G75*
G03*
X-411665625Y262918750I0J-500000D01*
G01*
%TO.C,D58*%
X-126996875Y282468750D02*
X-127796875Y282468750D01*
X-126496875Y281468788D02*
X-126496875Y281968750D01*
X-126996875Y280968750D02*
X-127796875Y280968750D01*
X-128296875Y281968712D02*
X-128296875Y281468750D01*
D12*
G36*
X-127396875Y282968750D02*
G01*
X-126796875Y283768750D01*
X-127996875Y283768750D01*
X-127396875Y282968750D01*
G37*
X-127396875Y282968750D02*
X-126796875Y283768750D01*
X-127996875Y283768750D01*
X-127396875Y282968750D01*
D10*
X-126496875Y281968750D02*
G75*
G03*
X-126996875Y282468750I-500000J0D01*
G01*
X-126996875Y280968750D02*
G75*
G03*
X-126496875Y281468750I0J500000D01*
G01*
X-128296875Y281468750D02*
G75*
G03*
X-127796875Y280968750I500000J0D01*
G01*
X-127796875Y282468750D02*
G75*
G03*
X-128296875Y281968750I0J-500000D01*
G01*
%TO.C,D57*%
X-146046875Y282468750D02*
X-146846875Y282468750D01*
X-145546875Y281468788D02*
X-145546875Y281968750D01*
X-146046875Y280968750D02*
X-146846875Y280968750D01*
X-147346875Y281968712D02*
X-147346875Y281468750D01*
D12*
G36*
X-146446875Y282968750D02*
G01*
X-145846875Y283768750D01*
X-147046875Y283768750D01*
X-146446875Y282968750D01*
G37*
X-146446875Y282968750D02*
X-145846875Y283768750D01*
X-147046875Y283768750D01*
X-146446875Y282968750D01*
D10*
X-145546875Y281968750D02*
G75*
G03*
X-146046875Y282468750I-500000J0D01*
G01*
X-146046875Y280968750D02*
G75*
G03*
X-145546875Y281468750I0J500000D01*
G01*
X-147346875Y281468750D02*
G75*
G03*
X-146846875Y280968750I500000J0D01*
G01*
X-146846875Y282468750D02*
G75*
G03*
X-147346875Y281968750I0J-500000D01*
G01*
%TO.C,D56*%
X-172240625Y282468750D02*
X-173040625Y282468750D01*
X-171740625Y281468788D02*
X-171740625Y281968750D01*
X-172240625Y280968750D02*
X-173040625Y280968750D01*
X-173540625Y281968712D02*
X-173540625Y281468750D01*
D12*
G36*
X-172640625Y282968750D02*
G01*
X-172040625Y283768750D01*
X-173240625Y283768750D01*
X-172640625Y282968750D01*
G37*
X-172640625Y282968750D02*
X-172040625Y283768750D01*
X-173240625Y283768750D01*
X-172640625Y282968750D01*
D10*
X-171740625Y281968750D02*
G75*
G03*
X-172240625Y282468750I-500000J0D01*
G01*
X-172240625Y280968750D02*
G75*
G03*
X-171740625Y281468750I0J500000D01*
G01*
X-173540625Y281468750D02*
G75*
G03*
X-173040625Y280968750I500000J0D01*
G01*
X-173040625Y282468750D02*
G75*
G03*
X-173540625Y281968750I0J-500000D01*
G01*
%TO.C,D55*%
X-198434375Y282468750D02*
X-199234375Y282468750D01*
X-197934375Y281468788D02*
X-197934375Y281968750D01*
X-198434375Y280968750D02*
X-199234375Y280968750D01*
X-199734375Y281968712D02*
X-199734375Y281468750D01*
D12*
G36*
X-198834375Y282968750D02*
G01*
X-198234375Y283768750D01*
X-199434375Y283768750D01*
X-198834375Y282968750D01*
G37*
X-198834375Y282968750D02*
X-198234375Y283768750D01*
X-199434375Y283768750D01*
X-198834375Y282968750D01*
D10*
X-197934375Y281968750D02*
G75*
G03*
X-198434375Y282468750I-500000J0D01*
G01*
X-198434375Y280968750D02*
G75*
G03*
X-197934375Y281468750I0J500000D01*
G01*
X-199734375Y281468750D02*
G75*
G03*
X-199234375Y280968750I500000J0D01*
G01*
X-199234375Y282468750D02*
G75*
G03*
X-199734375Y281968750I0J-500000D01*
G01*
%TO.C,D54*%
X-217484375Y282468750D02*
X-218284375Y282468750D01*
X-216984375Y281468788D02*
X-216984375Y281968750D01*
X-217484375Y280968750D02*
X-218284375Y280968750D01*
X-218784375Y281968712D02*
X-218784375Y281468750D01*
D12*
G36*
X-217884375Y282968750D02*
G01*
X-217284375Y283768750D01*
X-218484375Y283768750D01*
X-217884375Y282968750D01*
G37*
X-217884375Y282968750D02*
X-217284375Y283768750D01*
X-218484375Y283768750D01*
X-217884375Y282968750D01*
D10*
X-216984375Y281968750D02*
G75*
G03*
X-217484375Y282468750I-500000J0D01*
G01*
X-217484375Y280968750D02*
G75*
G03*
X-216984375Y281468750I0J500000D01*
G01*
X-218784375Y281468750D02*
G75*
G03*
X-218284375Y280968750I500000J0D01*
G01*
X-218284375Y282468750D02*
G75*
G03*
X-218784375Y281968750I0J-500000D01*
G01*
%TO.C,D53*%
X-232962500Y282468750D02*
X-233762500Y282468750D01*
X-232462500Y281468788D02*
X-232462500Y281968750D01*
X-232962500Y280968750D02*
X-233762500Y280968750D01*
X-234262500Y281968712D02*
X-234262500Y281468750D01*
D12*
G36*
X-233362500Y282968750D02*
G01*
X-232762500Y283768750D01*
X-233962500Y283768750D01*
X-233362500Y282968750D01*
G37*
X-233362500Y282968750D02*
X-232762500Y283768750D01*
X-233962500Y283768750D01*
X-233362500Y282968750D01*
D10*
X-232462500Y281968750D02*
G75*
G03*
X-232962500Y282468750I-500000J0D01*
G01*
X-232962500Y280968750D02*
G75*
G03*
X-232462500Y281468750I0J500000D01*
G01*
X-234262500Y281468750D02*
G75*
G03*
X-233762500Y280968750I500000J0D01*
G01*
X-233762500Y282468750D02*
G75*
G03*
X-234262500Y281968750I0J-500000D01*
G01*
%TO.C,D52*%
X-255584375Y282468750D02*
X-256384375Y282468750D01*
X-255084375Y281468788D02*
X-255084375Y281968750D01*
X-255584375Y280968750D02*
X-256384375Y280968750D01*
X-256884375Y281968712D02*
X-256884375Y281468750D01*
D12*
G36*
X-255984375Y282968750D02*
G01*
X-255384375Y283768750D01*
X-256584375Y283768750D01*
X-255984375Y282968750D01*
G37*
X-255984375Y282968750D02*
X-255384375Y283768750D01*
X-256584375Y283768750D01*
X-255984375Y282968750D01*
D10*
X-255084375Y281968750D02*
G75*
G03*
X-255584375Y282468750I-500000J0D01*
G01*
X-255584375Y280968750D02*
G75*
G03*
X-255084375Y281468750I0J500000D01*
G01*
X-256884375Y281468750D02*
G75*
G03*
X-256384375Y280968750I500000J0D01*
G01*
X-256384375Y282468750D02*
G75*
G03*
X-256884375Y281968750I0J-500000D01*
G01*
%TO.C,D51*%
X-274634375Y282468750D02*
X-275434375Y282468750D01*
X-274134375Y281468788D02*
X-274134375Y281968750D01*
X-274634375Y280968750D02*
X-275434375Y280968750D01*
X-275934375Y281968712D02*
X-275934375Y281468750D01*
D12*
G36*
X-275034375Y282968750D02*
G01*
X-274434375Y283768750D01*
X-275634375Y283768750D01*
X-275034375Y282968750D01*
G37*
X-275034375Y282968750D02*
X-274434375Y283768750D01*
X-275634375Y283768750D01*
X-275034375Y282968750D01*
D10*
X-274134375Y281968750D02*
G75*
G03*
X-274634375Y282468750I-500000J0D01*
G01*
X-274634375Y280968750D02*
G75*
G03*
X-274134375Y281468750I0J500000D01*
G01*
X-275934375Y281468750D02*
G75*
G03*
X-275434375Y280968750I500000J0D01*
G01*
X-275434375Y282468750D02*
G75*
G03*
X-275934375Y281968750I0J-500000D01*
G01*
%TO.C,D50*%
X-293684375Y282468750D02*
X-294484375Y282468750D01*
X-293184375Y281468788D02*
X-293184375Y281968750D01*
X-293684375Y280968750D02*
X-294484375Y280968750D01*
X-294984375Y281968712D02*
X-294984375Y281468750D01*
D12*
G36*
X-294084375Y282968750D02*
G01*
X-293484375Y283768750D01*
X-294684375Y283768750D01*
X-294084375Y282968750D01*
G37*
X-294084375Y282968750D02*
X-293484375Y283768750D01*
X-294684375Y283768750D01*
X-294084375Y282968750D01*
D10*
X-293184375Y281968750D02*
G75*
G03*
X-293684375Y282468750I-500000J0D01*
G01*
X-293684375Y280968750D02*
G75*
G03*
X-293184375Y281468750I0J500000D01*
G01*
X-294984375Y281468750D02*
G75*
G03*
X-294484375Y280968750I500000J0D01*
G01*
X-294484375Y282468750D02*
G75*
G03*
X-294984375Y281968750I0J-500000D01*
G01*
%TO.C,D49*%
X-312734375Y282468750D02*
X-313534375Y282468750D01*
X-312234375Y281468788D02*
X-312234375Y281968750D01*
X-312734375Y280968750D02*
X-313534375Y280968750D01*
X-314034375Y281968712D02*
X-314034375Y281468750D01*
D12*
G36*
X-313134375Y282968750D02*
G01*
X-312534375Y283768750D01*
X-313734375Y283768750D01*
X-313134375Y282968750D01*
G37*
X-313134375Y282968750D02*
X-312534375Y283768750D01*
X-313734375Y283768750D01*
X-313134375Y282968750D01*
D10*
X-312234375Y281968750D02*
G75*
G03*
X-312734375Y282468750I-500000J0D01*
G01*
X-312734375Y280968750D02*
G75*
G03*
X-312234375Y281468750I0J500000D01*
G01*
X-314034375Y281468750D02*
G75*
G03*
X-313534375Y280968750I500000J0D01*
G01*
X-313534375Y282468750D02*
G75*
G03*
X-314034375Y281968750I0J-500000D01*
G01*
%TO.C,D48*%
X-331784375Y282468750D02*
X-332584375Y282468750D01*
X-331284375Y281468788D02*
X-331284375Y281968750D01*
X-331784375Y280968750D02*
X-332584375Y280968750D01*
X-333084375Y281968712D02*
X-333084375Y281468750D01*
D12*
G36*
X-332184375Y282968750D02*
G01*
X-331584375Y283768750D01*
X-332784375Y283768750D01*
X-332184375Y282968750D01*
G37*
X-332184375Y282968750D02*
X-331584375Y283768750D01*
X-332784375Y283768750D01*
X-332184375Y282968750D01*
D10*
X-331284375Y281968750D02*
G75*
G03*
X-331784375Y282468750I-500000J0D01*
G01*
X-331784375Y280968750D02*
G75*
G03*
X-331284375Y281468750I0J500000D01*
G01*
X-333084375Y281468750D02*
G75*
G03*
X-332584375Y280968750I500000J0D01*
G01*
X-332584375Y282468750D02*
G75*
G03*
X-333084375Y281968750I0J-500000D01*
G01*
%TO.C,D47*%
X-350834375Y282468750D02*
X-351634375Y282468750D01*
X-350334375Y281468788D02*
X-350334375Y281968750D01*
X-350834375Y280968750D02*
X-351634375Y280968750D01*
X-352134375Y281968712D02*
X-352134375Y281468750D01*
D12*
G36*
X-351234375Y282968750D02*
G01*
X-350634375Y283768750D01*
X-351834375Y283768750D01*
X-351234375Y282968750D01*
G37*
X-351234375Y282968750D02*
X-350634375Y283768750D01*
X-351834375Y283768750D01*
X-351234375Y282968750D01*
D10*
X-350334375Y281968750D02*
G75*
G03*
X-350834375Y282468750I-500000J0D01*
G01*
X-350834375Y280968750D02*
G75*
G03*
X-350334375Y281468750I0J500000D01*
G01*
X-352134375Y281468750D02*
G75*
G03*
X-351634375Y280968750I500000J0D01*
G01*
X-351634375Y282468750D02*
G75*
G03*
X-352134375Y281968750I0J-500000D01*
G01*
%TO.C,D46*%
X-369884375Y282468750D02*
X-370684375Y282468750D01*
X-369384375Y281468788D02*
X-369384375Y281968750D01*
X-369884375Y280968750D02*
X-370684375Y280968750D01*
X-371184375Y281968712D02*
X-371184375Y281468750D01*
D12*
G36*
X-370284375Y282968750D02*
G01*
X-369684375Y283768750D01*
X-370884375Y283768750D01*
X-370284375Y282968750D01*
G37*
X-370284375Y282968750D02*
X-369684375Y283768750D01*
X-370884375Y283768750D01*
X-370284375Y282968750D01*
D10*
X-369384375Y281968750D02*
G75*
G03*
X-369884375Y282468750I-500000J0D01*
G01*
X-369884375Y280968750D02*
G75*
G03*
X-369384375Y281468750I0J500000D01*
G01*
X-371184375Y281468750D02*
G75*
G03*
X-370684375Y280968750I500000J0D01*
G01*
X-370684375Y282468750D02*
G75*
G03*
X-371184375Y281968750I0J-500000D01*
G01*
%TO.C,D45*%
X-400840625Y282468750D02*
X-401640625Y282468750D01*
X-400340625Y281468788D02*
X-400340625Y281968750D01*
X-400840625Y280968750D02*
X-401640625Y280968750D01*
X-402140625Y281968712D02*
X-402140625Y281468750D01*
D12*
G36*
X-401240625Y282968750D02*
G01*
X-400640625Y283768750D01*
X-401840625Y283768750D01*
X-401240625Y282968750D01*
G37*
X-401240625Y282968750D02*
X-400640625Y283768750D01*
X-401840625Y283768750D01*
X-401240625Y282968750D01*
D10*
X-400340625Y281968750D02*
G75*
G03*
X-400840625Y282468750I-500000J0D01*
G01*
X-400840625Y280968750D02*
G75*
G03*
X-400340625Y281468750I0J500000D01*
G01*
X-402140625Y281468750D02*
G75*
G03*
X-401640625Y280968750I500000J0D01*
G01*
X-401640625Y282468750D02*
G75*
G03*
X-402140625Y281968750I0J-500000D01*
G01*
%TO.C,D44*%
X-126996875Y301518750D02*
X-127796875Y301518750D01*
X-126496875Y300518788D02*
X-126496875Y301018750D01*
X-126996875Y300018750D02*
X-127796875Y300018750D01*
X-128296875Y301018712D02*
X-128296875Y300518750D01*
D12*
G36*
X-127396875Y302018750D02*
G01*
X-126796875Y302818750D01*
X-127996875Y302818750D01*
X-127396875Y302018750D01*
G37*
X-127396875Y302018750D02*
X-126796875Y302818750D01*
X-127996875Y302818750D01*
X-127396875Y302018750D01*
D10*
X-126496875Y301018750D02*
G75*
G03*
X-126996875Y301518750I-500000J0D01*
G01*
X-126996875Y300018750D02*
G75*
G03*
X-126496875Y300518750I0J500000D01*
G01*
X-128296875Y300518750D02*
G75*
G03*
X-127796875Y300018750I500000J0D01*
G01*
X-127796875Y301518750D02*
G75*
G03*
X-128296875Y301018750I0J-500000D01*
G01*
%TO.C,D43*%
X-157953125Y301518750D02*
X-158753125Y301518750D01*
X-157453125Y300518788D02*
X-157453125Y301018750D01*
X-157953125Y300018750D02*
X-158753125Y300018750D01*
X-159253125Y301018712D02*
X-159253125Y300518750D01*
D12*
G36*
X-158353125Y302018750D02*
G01*
X-157753125Y302818750D01*
X-158953125Y302818750D01*
X-158353125Y302018750D01*
G37*
X-158353125Y302018750D02*
X-157753125Y302818750D01*
X-158953125Y302818750D01*
X-158353125Y302018750D01*
D10*
X-157453125Y301018750D02*
G75*
G03*
X-157953125Y301518750I-500000J0D01*
G01*
X-157953125Y300018750D02*
G75*
G03*
X-157453125Y300518750I0J500000D01*
G01*
X-159253125Y300518750D02*
G75*
G03*
X-158753125Y300018750I500000J0D01*
G01*
X-158753125Y301518750D02*
G75*
G03*
X-159253125Y301018750I0J-500000D01*
G01*
%TO.C,D42*%
X-188909375Y301518750D02*
X-189709375Y301518750D01*
X-188409375Y300518788D02*
X-188409375Y301018750D01*
X-188909375Y300018750D02*
X-189709375Y300018750D01*
X-190209375Y301018712D02*
X-190209375Y300518750D01*
D12*
G36*
X-189309375Y302018750D02*
G01*
X-188709375Y302818750D01*
X-189909375Y302818750D01*
X-189309375Y302018750D01*
G37*
X-189309375Y302018750D02*
X-188709375Y302818750D01*
X-189909375Y302818750D01*
X-189309375Y302018750D01*
D10*
X-188409375Y301018750D02*
G75*
G03*
X-188909375Y301518750I-500000J0D01*
G01*
X-188909375Y300018750D02*
G75*
G03*
X-188409375Y300518750I0J500000D01*
G01*
X-190209375Y300518750D02*
G75*
G03*
X-189709375Y300018750I500000J0D01*
G01*
X-189709375Y301518750D02*
G75*
G03*
X-190209375Y301018750I0J-500000D01*
G01*
%TO.C,D41*%
X-207959375Y301518750D02*
X-208759375Y301518750D01*
X-207459375Y300518788D02*
X-207459375Y301018750D01*
X-207959375Y300018750D02*
X-208759375Y300018750D01*
X-209259375Y301018712D02*
X-209259375Y300518750D01*
D12*
G36*
X-208359375Y302018750D02*
G01*
X-207759375Y302818750D01*
X-208959375Y302818750D01*
X-208359375Y302018750D01*
G37*
X-208359375Y302018750D02*
X-207759375Y302818750D01*
X-208959375Y302818750D01*
X-208359375Y302018750D01*
D10*
X-207459375Y301018750D02*
G75*
G03*
X-207959375Y301518750I-500000J0D01*
G01*
X-207959375Y300018750D02*
G75*
G03*
X-207459375Y300518750I0J500000D01*
G01*
X-209259375Y300518750D02*
G75*
G03*
X-208759375Y300018750I500000J0D01*
G01*
X-208759375Y301518750D02*
G75*
G03*
X-209259375Y301018750I0J-500000D01*
G01*
%TO.C,D40*%
X-227009375Y301518750D02*
X-227809375Y301518750D01*
X-226509375Y300518788D02*
X-226509375Y301018750D01*
X-227009375Y300018750D02*
X-227809375Y300018750D01*
X-228309375Y301018712D02*
X-228309375Y300518750D01*
D12*
G36*
X-227409375Y302018750D02*
G01*
X-226809375Y302818750D01*
X-228009375Y302818750D01*
X-227409375Y302018750D01*
G37*
X-227409375Y302018750D02*
X-226809375Y302818750D01*
X-228009375Y302818750D01*
X-227409375Y302018750D01*
D10*
X-226509375Y301018750D02*
G75*
G03*
X-227009375Y301518750I-500000J0D01*
G01*
X-227009375Y300018750D02*
G75*
G03*
X-226509375Y300518750I0J500000D01*
G01*
X-228309375Y300518750D02*
G75*
G03*
X-227809375Y300018750I500000J0D01*
G01*
X-227809375Y301518750D02*
G75*
G03*
X-228309375Y301018750I0J-500000D01*
G01*
%TO.C,D39*%
X-246059375Y301518750D02*
X-246859375Y301518750D01*
X-245559375Y300518788D02*
X-245559375Y301018750D01*
X-246059375Y300018750D02*
X-246859375Y300018750D01*
X-247359375Y301018712D02*
X-247359375Y300518750D01*
D12*
G36*
X-246459375Y302018750D02*
G01*
X-245859375Y302818750D01*
X-247059375Y302818750D01*
X-246459375Y302018750D01*
G37*
X-246459375Y302018750D02*
X-245859375Y302818750D01*
X-247059375Y302818750D01*
X-246459375Y302018750D01*
D10*
X-245559375Y301018750D02*
G75*
G03*
X-246059375Y301518750I-500000J0D01*
G01*
X-246059375Y300018750D02*
G75*
G03*
X-245559375Y300518750I0J500000D01*
G01*
X-247359375Y300518750D02*
G75*
G03*
X-246859375Y300018750I500000J0D01*
G01*
X-246859375Y301518750D02*
G75*
G03*
X-247359375Y301018750I0J-500000D01*
G01*
%TO.C,D38*%
X-265109375Y301518750D02*
X-265909375Y301518750D01*
X-264609375Y300518788D02*
X-264609375Y301018750D01*
X-265109375Y300018750D02*
X-265909375Y300018750D01*
X-266409375Y301018712D02*
X-266409375Y300518750D01*
D12*
G36*
X-265509375Y302018750D02*
G01*
X-264909375Y302818750D01*
X-266109375Y302818750D01*
X-265509375Y302018750D01*
G37*
X-265509375Y302018750D02*
X-264909375Y302818750D01*
X-266109375Y302818750D01*
X-265509375Y302018750D01*
D10*
X-264609375Y301018750D02*
G75*
G03*
X-265109375Y301518750I-500000J0D01*
G01*
X-265109375Y300018750D02*
G75*
G03*
X-264609375Y300518750I0J500000D01*
G01*
X-266409375Y300518750D02*
G75*
G03*
X-265909375Y300018750I500000J0D01*
G01*
X-265909375Y301518750D02*
G75*
G03*
X-266409375Y301018750I0J-500000D01*
G01*
%TO.C,D37*%
X-284159375Y301518750D02*
X-284959375Y301518750D01*
X-283659375Y300518788D02*
X-283659375Y301018750D01*
X-284159375Y300018750D02*
X-284959375Y300018750D01*
X-285459375Y301018712D02*
X-285459375Y300518750D01*
D12*
G36*
X-284559375Y302018750D02*
G01*
X-283959375Y302818750D01*
X-285159375Y302818750D01*
X-284559375Y302018750D01*
G37*
X-284559375Y302018750D02*
X-283959375Y302818750D01*
X-285159375Y302818750D01*
X-284559375Y302018750D01*
D10*
X-283659375Y301018750D02*
G75*
G03*
X-284159375Y301518750I-500000J0D01*
G01*
X-284159375Y300018750D02*
G75*
G03*
X-283659375Y300518750I0J500000D01*
G01*
X-285459375Y300518750D02*
G75*
G03*
X-284959375Y300018750I500000J0D01*
G01*
X-284959375Y301518750D02*
G75*
G03*
X-285459375Y301018750I0J-500000D01*
G01*
%TO.C,D36*%
X-303209375Y301518750D02*
X-304009375Y301518750D01*
X-302709375Y300518788D02*
X-302709375Y301018750D01*
X-303209375Y300018750D02*
X-304009375Y300018750D01*
X-304509375Y301018712D02*
X-304509375Y300518750D01*
D12*
G36*
X-303609375Y302018750D02*
G01*
X-303009375Y302818750D01*
X-304209375Y302818750D01*
X-303609375Y302018750D01*
G37*
X-303609375Y302018750D02*
X-303009375Y302818750D01*
X-304209375Y302818750D01*
X-303609375Y302018750D01*
D10*
X-302709375Y301018750D02*
G75*
G03*
X-303209375Y301518750I-500000J0D01*
G01*
X-303209375Y300018750D02*
G75*
G03*
X-302709375Y300518750I0J500000D01*
G01*
X-304509375Y300518750D02*
G75*
G03*
X-304009375Y300018750I500000J0D01*
G01*
X-304009375Y301518750D02*
G75*
G03*
X-304509375Y301018750I0J-500000D01*
G01*
%TO.C,D35*%
X-322259375Y301518750D02*
X-323059375Y301518750D01*
X-321759375Y300518788D02*
X-321759375Y301018750D01*
X-322259375Y300018750D02*
X-323059375Y300018750D01*
X-323559375Y301018712D02*
X-323559375Y300518750D01*
D12*
G36*
X-322659375Y302018750D02*
G01*
X-322059375Y302818750D01*
X-323259375Y302818750D01*
X-322659375Y302018750D01*
G37*
X-322659375Y302018750D02*
X-322059375Y302818750D01*
X-323259375Y302818750D01*
X-322659375Y302018750D01*
D10*
X-321759375Y301018750D02*
G75*
G03*
X-322259375Y301518750I-500000J0D01*
G01*
X-322259375Y300018750D02*
G75*
G03*
X-321759375Y300518750I0J500000D01*
G01*
X-323559375Y300518750D02*
G75*
G03*
X-323059375Y300018750I500000J0D01*
G01*
X-323059375Y301518750D02*
G75*
G03*
X-323559375Y301018750I0J-500000D01*
G01*
%TO.C,D34*%
X-341309375Y301518750D02*
X-342109375Y301518750D01*
X-340809375Y300518788D02*
X-340809375Y301018750D01*
X-341309375Y300018750D02*
X-342109375Y300018750D01*
X-342609375Y301018712D02*
X-342609375Y300518750D01*
D12*
G36*
X-341709375Y302018750D02*
G01*
X-341109375Y302818750D01*
X-342309375Y302818750D01*
X-341709375Y302018750D01*
G37*
X-341709375Y302018750D02*
X-341109375Y302818750D01*
X-342309375Y302818750D01*
X-341709375Y302018750D01*
D10*
X-340809375Y301018750D02*
G75*
G03*
X-341309375Y301518750I-500000J0D01*
G01*
X-341309375Y300018750D02*
G75*
G03*
X-340809375Y300518750I0J500000D01*
G01*
X-342609375Y300518750D02*
G75*
G03*
X-342109375Y300018750I500000J0D01*
G01*
X-342109375Y301518750D02*
G75*
G03*
X-342609375Y301018750I0J-500000D01*
G01*
%TO.C,D33*%
X-360359375Y301518750D02*
X-361159375Y301518750D01*
X-359859375Y300518788D02*
X-359859375Y301018750D01*
X-360359375Y300018750D02*
X-361159375Y300018750D01*
X-361659375Y301018712D02*
X-361659375Y300518750D01*
D12*
G36*
X-360759375Y302018750D02*
G01*
X-360159375Y302818750D01*
X-361359375Y302818750D01*
X-360759375Y302018750D01*
G37*
X-360759375Y302018750D02*
X-360159375Y302818750D01*
X-361359375Y302818750D01*
X-360759375Y302018750D01*
D10*
X-359859375Y301018750D02*
G75*
G03*
X-360359375Y301518750I-500000J0D01*
G01*
X-360359375Y300018750D02*
G75*
G03*
X-359859375Y300518750I0J500000D01*
G01*
X-361659375Y300518750D02*
G75*
G03*
X-361159375Y300018750I500000J0D01*
G01*
X-361159375Y301518750D02*
G75*
G03*
X-361659375Y301018750I0J-500000D01*
G01*
%TO.C,D32*%
X-379409375Y301518750D02*
X-380209375Y301518750D01*
X-378909375Y300518788D02*
X-378909375Y301018750D01*
X-379409375Y300018750D02*
X-380209375Y300018750D01*
X-380709375Y301018712D02*
X-380709375Y300518750D01*
D12*
G36*
X-379809375Y302018750D02*
G01*
X-379209375Y302818750D01*
X-380409375Y302818750D01*
X-379809375Y302018750D01*
G37*
X-379809375Y302018750D02*
X-379209375Y302818750D01*
X-380409375Y302818750D01*
X-379809375Y302018750D01*
D10*
X-378909375Y301018750D02*
G75*
G03*
X-379409375Y301518750I-500000J0D01*
G01*
X-379409375Y300018750D02*
G75*
G03*
X-378909375Y300518750I0J500000D01*
G01*
X-380709375Y300518750D02*
G75*
G03*
X-380209375Y300018750I500000J0D01*
G01*
X-380209375Y301518750D02*
G75*
G03*
X-380709375Y301018750I0J-500000D01*
G01*
%TO.C,D31*%
X-405603125Y301518750D02*
X-406403125Y301518750D01*
X-405103125Y300518788D02*
X-405103125Y301018750D01*
X-405603125Y300018750D02*
X-406403125Y300018750D01*
X-406903125Y301018712D02*
X-406903125Y300518750D01*
D12*
G36*
X-406003125Y302018750D02*
G01*
X-405403125Y302818750D01*
X-406603125Y302818750D01*
X-406003125Y302018750D01*
G37*
X-406003125Y302018750D02*
X-405403125Y302818750D01*
X-406603125Y302818750D01*
X-406003125Y302018750D01*
D10*
X-405103125Y301018750D02*
G75*
G03*
X-405603125Y301518750I-500000J0D01*
G01*
X-405603125Y300018750D02*
G75*
G03*
X-405103125Y300518750I0J500000D01*
G01*
X-406903125Y300518750D02*
G75*
G03*
X-406403125Y300018750I500000J0D01*
G01*
X-406403125Y301518750D02*
G75*
G03*
X-406903125Y301018750I0J-500000D01*
G01*
%TO.C,D30*%
X-126996875Y320568750D02*
X-127796875Y320568750D01*
X-126496875Y319568788D02*
X-126496875Y320068750D01*
X-126996875Y319068750D02*
X-127796875Y319068750D01*
X-128296875Y320068712D02*
X-128296875Y319568750D01*
D12*
G36*
X-127396875Y321068750D02*
G01*
X-126796875Y321868750D01*
X-127996875Y321868750D01*
X-127396875Y321068750D01*
G37*
X-127396875Y321068750D02*
X-126796875Y321868750D01*
X-127996875Y321868750D01*
X-127396875Y321068750D01*
D10*
X-126496875Y320068750D02*
G75*
G03*
X-126996875Y320568750I-500000J0D01*
G01*
X-126996875Y319068750D02*
G75*
G03*
X-126496875Y319568750I0J500000D01*
G01*
X-128296875Y319568750D02*
G75*
G03*
X-127796875Y319068750I500000J0D01*
G01*
X-127796875Y320568750D02*
G75*
G03*
X-128296875Y320068750I0J-500000D01*
G01*
%TO.C,D29*%
X-150809375Y320568750D02*
X-151609375Y320568750D01*
X-150309375Y319568788D02*
X-150309375Y320068750D01*
X-150809375Y319068750D02*
X-151609375Y319068750D01*
X-152109375Y320068712D02*
X-152109375Y319568750D01*
D12*
G36*
X-151209375Y321068750D02*
G01*
X-150609375Y321868750D01*
X-151809375Y321868750D01*
X-151209375Y321068750D01*
G37*
X-151209375Y321068750D02*
X-150609375Y321868750D01*
X-151809375Y321868750D01*
X-151209375Y321068750D01*
D10*
X-150309375Y320068750D02*
G75*
G03*
X-150809375Y320568750I-500000J0D01*
G01*
X-150809375Y319068750D02*
G75*
G03*
X-150309375Y319568750I0J500000D01*
G01*
X-152109375Y319568750D02*
G75*
G03*
X-151609375Y319068750I500000J0D01*
G01*
X-151609375Y320568750D02*
G75*
G03*
X-152109375Y320068750I0J-500000D01*
G01*
%TO.C,D28*%
X-174621875Y320568750D02*
X-175421875Y320568750D01*
X-174121875Y319568788D02*
X-174121875Y320068750D01*
X-174621875Y319068750D02*
X-175421875Y319068750D01*
X-175921875Y320068712D02*
X-175921875Y319568750D01*
D12*
G36*
X-175021875Y321068750D02*
G01*
X-174421875Y321868750D01*
X-175621875Y321868750D01*
X-175021875Y321068750D01*
G37*
X-175021875Y321068750D02*
X-174421875Y321868750D01*
X-175621875Y321868750D01*
X-175021875Y321068750D01*
D10*
X-174121875Y320068750D02*
G75*
G03*
X-174621875Y320568750I-500000J0D01*
G01*
X-174621875Y319068750D02*
G75*
G03*
X-174121875Y319568750I0J500000D01*
G01*
X-175921875Y319568750D02*
G75*
G03*
X-175421875Y319068750I500000J0D01*
G01*
X-175421875Y320568750D02*
G75*
G03*
X-175921875Y320068750I0J-500000D01*
G01*
%TO.C,D27*%
X-193671875Y320568750D02*
X-194471875Y320568750D01*
X-193171875Y319568788D02*
X-193171875Y320068750D01*
X-193671875Y319068750D02*
X-194471875Y319068750D01*
X-194971875Y320068712D02*
X-194971875Y319568750D01*
D12*
G36*
X-194071875Y321068750D02*
G01*
X-193471875Y321868750D01*
X-194671875Y321868750D01*
X-194071875Y321068750D01*
G37*
X-194071875Y321068750D02*
X-193471875Y321868750D01*
X-194671875Y321868750D01*
X-194071875Y321068750D01*
D10*
X-193171875Y320068750D02*
G75*
G03*
X-193671875Y320568750I-500000J0D01*
G01*
X-193671875Y319068750D02*
G75*
G03*
X-193171875Y319568750I0J500000D01*
G01*
X-194971875Y319568750D02*
G75*
G03*
X-194471875Y319068750I500000J0D01*
G01*
X-194471875Y320568750D02*
G75*
G03*
X-194971875Y320068750I0J-500000D01*
G01*
%TO.C,D26*%
X-212721875Y320568750D02*
X-213521875Y320568750D01*
X-212221875Y319568788D02*
X-212221875Y320068750D01*
X-212721875Y319068750D02*
X-213521875Y319068750D01*
X-214021875Y320068712D02*
X-214021875Y319568750D01*
D12*
G36*
X-213121875Y321068750D02*
G01*
X-212521875Y321868750D01*
X-213721875Y321868750D01*
X-213121875Y321068750D01*
G37*
X-213121875Y321068750D02*
X-212521875Y321868750D01*
X-213721875Y321868750D01*
X-213121875Y321068750D01*
D10*
X-212221875Y320068750D02*
G75*
G03*
X-212721875Y320568750I-500000J0D01*
G01*
X-212721875Y319068750D02*
G75*
G03*
X-212221875Y319568750I0J500000D01*
G01*
X-214021875Y319568750D02*
G75*
G03*
X-213521875Y319068750I500000J0D01*
G01*
X-213521875Y320568750D02*
G75*
G03*
X-214021875Y320068750I0J-500000D01*
G01*
%TO.C,D25*%
X-231771875Y320568750D02*
X-232571875Y320568750D01*
X-231271875Y319568788D02*
X-231271875Y320068750D01*
X-231771875Y319068750D02*
X-232571875Y319068750D01*
X-233071875Y320068712D02*
X-233071875Y319568750D01*
D12*
G36*
X-232171875Y321068750D02*
G01*
X-231571875Y321868750D01*
X-232771875Y321868750D01*
X-232171875Y321068750D01*
G37*
X-232171875Y321068750D02*
X-231571875Y321868750D01*
X-232771875Y321868750D01*
X-232171875Y321068750D01*
D10*
X-231271875Y320068750D02*
G75*
G03*
X-231771875Y320568750I-500000J0D01*
G01*
X-231771875Y319068750D02*
G75*
G03*
X-231271875Y319568750I0J500000D01*
G01*
X-233071875Y319568750D02*
G75*
G03*
X-232571875Y319068750I500000J0D01*
G01*
X-232571875Y320568750D02*
G75*
G03*
X-233071875Y320068750I0J-500000D01*
G01*
%TO.C,D24*%
X-250821875Y320568750D02*
X-251621875Y320568750D01*
X-250321875Y319568788D02*
X-250321875Y320068750D01*
X-250821875Y319068750D02*
X-251621875Y319068750D01*
X-252121875Y320068712D02*
X-252121875Y319568750D01*
D12*
G36*
X-251221875Y321068750D02*
G01*
X-250621875Y321868750D01*
X-251821875Y321868750D01*
X-251221875Y321068750D01*
G37*
X-251221875Y321068750D02*
X-250621875Y321868750D01*
X-251821875Y321868750D01*
X-251221875Y321068750D01*
D10*
X-250321875Y320068750D02*
G75*
G03*
X-250821875Y320568750I-500000J0D01*
G01*
X-250821875Y319068750D02*
G75*
G03*
X-250321875Y319568750I0J500000D01*
G01*
X-252121875Y319568750D02*
G75*
G03*
X-251621875Y319068750I500000J0D01*
G01*
X-251621875Y320568750D02*
G75*
G03*
X-252121875Y320068750I0J-500000D01*
G01*
%TO.C,D23*%
X-269871875Y320568750D02*
X-270671875Y320568750D01*
X-269371875Y319568788D02*
X-269371875Y320068750D01*
X-269871875Y319068750D02*
X-270671875Y319068750D01*
X-271171875Y320068712D02*
X-271171875Y319568750D01*
D12*
G36*
X-270271875Y321068750D02*
G01*
X-269671875Y321868750D01*
X-270871875Y321868750D01*
X-270271875Y321068750D01*
G37*
X-270271875Y321068750D02*
X-269671875Y321868750D01*
X-270871875Y321868750D01*
X-270271875Y321068750D01*
D10*
X-269371875Y320068750D02*
G75*
G03*
X-269871875Y320568750I-500000J0D01*
G01*
X-269871875Y319068750D02*
G75*
G03*
X-269371875Y319568750I0J500000D01*
G01*
X-271171875Y319568750D02*
G75*
G03*
X-270671875Y319068750I500000J0D01*
G01*
X-270671875Y320568750D02*
G75*
G03*
X-271171875Y320068750I0J-500000D01*
G01*
%TO.C,D22*%
X-288921875Y320568750D02*
X-289721875Y320568750D01*
X-288421875Y319568788D02*
X-288421875Y320068750D01*
X-288921875Y319068750D02*
X-289721875Y319068750D01*
X-290221875Y320068712D02*
X-290221875Y319568750D01*
D12*
G36*
X-289321875Y321068750D02*
G01*
X-288721875Y321868750D01*
X-289921875Y321868750D01*
X-289321875Y321068750D01*
G37*
X-289321875Y321068750D02*
X-288721875Y321868750D01*
X-289921875Y321868750D01*
X-289321875Y321068750D01*
D10*
X-288421875Y320068750D02*
G75*
G03*
X-288921875Y320568750I-500000J0D01*
G01*
X-288921875Y319068750D02*
G75*
G03*
X-288421875Y319568750I0J500000D01*
G01*
X-290221875Y319568750D02*
G75*
G03*
X-289721875Y319068750I500000J0D01*
G01*
X-289721875Y320568750D02*
G75*
G03*
X-290221875Y320068750I0J-500000D01*
G01*
%TO.C,D21*%
X-307971875Y320568750D02*
X-308771875Y320568750D01*
X-307471875Y319568788D02*
X-307471875Y320068750D01*
X-307971875Y319068750D02*
X-308771875Y319068750D01*
X-309271875Y320068712D02*
X-309271875Y319568750D01*
D12*
G36*
X-308371875Y321068750D02*
G01*
X-307771875Y321868750D01*
X-308971875Y321868750D01*
X-308371875Y321068750D01*
G37*
X-308371875Y321068750D02*
X-307771875Y321868750D01*
X-308971875Y321868750D01*
X-308371875Y321068750D01*
D10*
X-307471875Y320068750D02*
G75*
G03*
X-307971875Y320568750I-500000J0D01*
G01*
X-307971875Y319068750D02*
G75*
G03*
X-307471875Y319568750I0J500000D01*
G01*
X-309271875Y319568750D02*
G75*
G03*
X-308771875Y319068750I500000J0D01*
G01*
X-308771875Y320568750D02*
G75*
G03*
X-309271875Y320068750I0J-500000D01*
G01*
%TO.C,D19*%
X-346071875Y320568750D02*
X-346871875Y320568750D01*
X-345571875Y319568788D02*
X-345571875Y320068750D01*
X-346071875Y319068750D02*
X-346871875Y319068750D01*
X-347371875Y320068712D02*
X-347371875Y319568750D01*
D12*
G36*
X-346471875Y321068750D02*
G01*
X-345871875Y321868750D01*
X-347071875Y321868750D01*
X-346471875Y321068750D01*
G37*
X-346471875Y321068750D02*
X-345871875Y321868750D01*
X-347071875Y321868750D01*
X-346471875Y321068750D01*
D10*
X-345571875Y320068750D02*
G75*
G03*
X-346071875Y320568750I-500000J0D01*
G01*
X-346071875Y319068750D02*
G75*
G03*
X-345571875Y319568750I0J500000D01*
G01*
X-347371875Y319568750D02*
G75*
G03*
X-346871875Y319068750I500000J0D01*
G01*
X-346871875Y320568750D02*
G75*
G03*
X-347371875Y320068750I0J-500000D01*
G01*
%TO.C,D18*%
X-361050000Y324250000D02*
X-361050000Y323450000D01*
X-360050038Y324750000D02*
X-360550000Y324750000D01*
X-359550000Y324250000D02*
X-359550000Y323450000D01*
X-360549962Y322950000D02*
X-360050000Y322950000D01*
D12*
G36*
X-361550000Y323850000D02*
G01*
X-362350000Y324450000D01*
X-362350000Y323250000D01*
X-361550000Y323850000D01*
G37*
X-361550000Y323850000D02*
X-362350000Y324450000D01*
X-362350000Y323250000D01*
X-361550000Y323850000D01*
D10*
X-360550000Y324750000D02*
G75*
G03*
X-361050000Y324250000I0J-500000D01*
G01*
X-359550000Y324250000D02*
G75*
G03*
X-360050000Y324750000I-500000J0D01*
G01*
X-360050000Y322950000D02*
G75*
G03*
X-359550000Y323450000I0J500000D01*
G01*
X-361050000Y323450000D02*
G75*
G03*
X-360550000Y322950000I500000J0D01*
G01*
%TO.C,D17*%
X-380100000Y324250000D02*
X-380100000Y323450000D01*
X-379100038Y324750000D02*
X-379600000Y324750000D01*
X-378600000Y324250000D02*
X-378600000Y323450000D01*
X-379599962Y322950000D02*
X-379100000Y322950000D01*
D12*
G36*
X-380600000Y323850000D02*
G01*
X-381400000Y324450000D01*
X-381400000Y323250000D01*
X-380600000Y323850000D01*
G37*
X-380600000Y323850000D02*
X-381400000Y324450000D01*
X-381400000Y323250000D01*
X-380600000Y323850000D01*
D10*
X-379600000Y324750000D02*
G75*
G03*
X-380100000Y324250000I0J-500000D01*
G01*
X-378600000Y324250000D02*
G75*
G03*
X-379100000Y324750000I-500000J0D01*
G01*
X-379100000Y322950000D02*
G75*
G03*
X-378600000Y323450000I0J500000D01*
G01*
X-380100000Y323450000D02*
G75*
G03*
X-379600000Y322950000I500000J0D01*
G01*
%TO.C,D16*%
X-403912500Y324250000D02*
X-403912500Y323450000D01*
X-402912538Y324750000D02*
X-403412500Y324750000D01*
X-402412500Y324250000D02*
X-402412500Y323450000D01*
X-403412462Y322950000D02*
X-402912500Y322950000D01*
D12*
G36*
X-404412500Y323850000D02*
G01*
X-405212500Y324450000D01*
X-405212500Y323250000D01*
X-404412500Y323850000D01*
G37*
X-404412500Y323850000D02*
X-405212500Y324450000D01*
X-405212500Y323250000D01*
X-404412500Y323850000D01*
D10*
X-403412500Y324750000D02*
G75*
G03*
X-403912500Y324250000I0J-500000D01*
G01*
X-402412500Y324250000D02*
G75*
G03*
X-402912500Y324750000I-500000J0D01*
G01*
X-402912500Y322950000D02*
G75*
G03*
X-402412500Y323450000I0J500000D01*
G01*
X-403912500Y323450000D02*
G75*
G03*
X-403412500Y322950000I500000J0D01*
G01*
%TO.C,D15*%
X-126996875Y339618750D02*
X-127796875Y339618750D01*
X-126496875Y338618788D02*
X-126496875Y339118750D01*
X-126996875Y338118750D02*
X-127796875Y338118750D01*
X-128296875Y339118712D02*
X-128296875Y338618750D01*
D12*
G36*
X-127396875Y340118750D02*
G01*
X-126796875Y340918750D01*
X-127996875Y340918750D01*
X-127396875Y340118750D01*
G37*
X-127396875Y340118750D02*
X-126796875Y340918750D01*
X-127996875Y340918750D01*
X-127396875Y340118750D01*
D10*
X-126496875Y339118750D02*
G75*
G03*
X-126996875Y339618750I-500000J0D01*
G01*
X-126996875Y338118750D02*
G75*
G03*
X-126496875Y338618750I0J500000D01*
G01*
X-128296875Y338618750D02*
G75*
G03*
X-127796875Y338118750I500000J0D01*
G01*
X-127796875Y339618750D02*
G75*
G03*
X-128296875Y339118750I0J-500000D01*
G01*
%TO.C,D14*%
X-155571875Y339618750D02*
X-156371875Y339618750D01*
X-155071875Y338618788D02*
X-155071875Y339118750D01*
X-155571875Y338118750D02*
X-156371875Y338118750D01*
X-156871875Y339118712D02*
X-156871875Y338618750D01*
D12*
G36*
X-155971875Y340118750D02*
G01*
X-155371875Y340918750D01*
X-156571875Y340918750D01*
X-155971875Y340118750D01*
G37*
X-155971875Y340118750D02*
X-155371875Y340918750D01*
X-156571875Y340918750D01*
X-155971875Y340118750D01*
D10*
X-155071875Y339118750D02*
G75*
G03*
X-155571875Y339618750I-500000J0D01*
G01*
X-155571875Y338118750D02*
G75*
G03*
X-155071875Y338618750I0J500000D01*
G01*
X-156871875Y338618750D02*
G75*
G03*
X-156371875Y338118750I500000J0D01*
G01*
X-156371875Y339618750D02*
G75*
G03*
X-156871875Y339118750I0J-500000D01*
G01*
%TO.C,D13*%
X-184146875Y339618750D02*
X-184946875Y339618750D01*
X-183646875Y338618788D02*
X-183646875Y339118750D01*
X-184146875Y338118750D02*
X-184946875Y338118750D01*
X-185446875Y339118712D02*
X-185446875Y338618750D01*
D12*
G36*
X-184546875Y340118750D02*
G01*
X-183946875Y340918750D01*
X-185146875Y340918750D01*
X-184546875Y340118750D01*
G37*
X-184546875Y340118750D02*
X-183946875Y340918750D01*
X-185146875Y340918750D01*
X-184546875Y340118750D01*
D10*
X-183646875Y339118750D02*
G75*
G03*
X-184146875Y339618750I-500000J0D01*
G01*
X-184146875Y338118750D02*
G75*
G03*
X-183646875Y338618750I0J500000D01*
G01*
X-185446875Y338618750D02*
G75*
G03*
X-184946875Y338118750I500000J0D01*
G01*
X-184946875Y339618750D02*
G75*
G03*
X-185446875Y339118750I0J-500000D01*
G01*
%TO.C,D12*%
X-203196875Y339618750D02*
X-203996875Y339618750D01*
X-202696875Y338618788D02*
X-202696875Y339118750D01*
X-203196875Y338118750D02*
X-203996875Y338118750D01*
X-204496875Y339118712D02*
X-204496875Y338618750D01*
D12*
G36*
X-203596875Y340118750D02*
G01*
X-202996875Y340918750D01*
X-204196875Y340918750D01*
X-203596875Y340118750D01*
G37*
X-203596875Y340118750D02*
X-202996875Y340918750D01*
X-204196875Y340918750D01*
X-203596875Y340118750D01*
D10*
X-202696875Y339118750D02*
G75*
G03*
X-203196875Y339618750I-500000J0D01*
G01*
X-203196875Y338118750D02*
G75*
G03*
X-202696875Y338618750I0J500000D01*
G01*
X-204496875Y338618750D02*
G75*
G03*
X-203996875Y338118750I500000J0D01*
G01*
X-203996875Y339618750D02*
G75*
G03*
X-204496875Y339118750I0J-500000D01*
G01*
%TO.C,D11*%
X-222246875Y339618750D02*
X-223046875Y339618750D01*
X-221746875Y338618788D02*
X-221746875Y339118750D01*
X-222246875Y338118750D02*
X-223046875Y338118750D01*
X-223546875Y339118712D02*
X-223546875Y338618750D01*
D12*
G36*
X-222646875Y340118750D02*
G01*
X-222046875Y340918750D01*
X-223246875Y340918750D01*
X-222646875Y340118750D01*
G37*
X-222646875Y340118750D02*
X-222046875Y340918750D01*
X-223246875Y340918750D01*
X-222646875Y340118750D01*
D10*
X-221746875Y339118750D02*
G75*
G03*
X-222246875Y339618750I-500000J0D01*
G01*
X-222246875Y338118750D02*
G75*
G03*
X-221746875Y338618750I0J500000D01*
G01*
X-223546875Y338618750D02*
G75*
G03*
X-223046875Y338118750I500000J0D01*
G01*
X-223046875Y339618750D02*
G75*
G03*
X-223546875Y339118750I0J-500000D01*
G01*
%TO.C,D10*%
X-241296875Y339618750D02*
X-242096875Y339618750D01*
X-240796875Y338618788D02*
X-240796875Y339118750D01*
X-241296875Y338118750D02*
X-242096875Y338118750D01*
X-242596875Y339118712D02*
X-242596875Y338618750D01*
D12*
G36*
X-241696875Y340118750D02*
G01*
X-241096875Y340918750D01*
X-242296875Y340918750D01*
X-241696875Y340118750D01*
G37*
X-241696875Y340118750D02*
X-241096875Y340918750D01*
X-242296875Y340918750D01*
X-241696875Y340118750D01*
D10*
X-240796875Y339118750D02*
G75*
G03*
X-241296875Y339618750I-500000J0D01*
G01*
X-241296875Y338118750D02*
G75*
G03*
X-240796875Y338618750I0J500000D01*
G01*
X-242596875Y338618750D02*
G75*
G03*
X-242096875Y338118750I500000J0D01*
G01*
X-242096875Y339618750D02*
G75*
G03*
X-242596875Y339118750I0J-500000D01*
G01*
%TO.C,D9*%
X-260346875Y339618750D02*
X-261146875Y339618750D01*
X-259846875Y338618788D02*
X-259846875Y339118750D01*
X-260346875Y338118750D02*
X-261146875Y338118750D01*
X-261646875Y339118712D02*
X-261646875Y338618750D01*
D12*
G36*
X-260746875Y340118750D02*
G01*
X-260146875Y340918750D01*
X-261346875Y340918750D01*
X-260746875Y340118750D01*
G37*
X-260746875Y340118750D02*
X-260146875Y340918750D01*
X-261346875Y340918750D01*
X-260746875Y340118750D01*
D10*
X-259846875Y339118750D02*
G75*
G03*
X-260346875Y339618750I-500000J0D01*
G01*
X-260346875Y338118750D02*
G75*
G03*
X-259846875Y338618750I0J500000D01*
G01*
X-261646875Y338618750D02*
G75*
G03*
X-261146875Y338118750I500000J0D01*
G01*
X-261146875Y339618750D02*
G75*
G03*
X-261646875Y339118750I0J-500000D01*
G01*
%TO.C,D8*%
X-279396875Y339618750D02*
X-280196875Y339618750D01*
X-278896875Y338618788D02*
X-278896875Y339118750D01*
X-279396875Y338118750D02*
X-280196875Y338118750D01*
X-280696875Y339118712D02*
X-280696875Y338618750D01*
D12*
G36*
X-279796875Y340118750D02*
G01*
X-279196875Y340918750D01*
X-280396875Y340918750D01*
X-279796875Y340118750D01*
G37*
X-279796875Y340118750D02*
X-279196875Y340918750D01*
X-280396875Y340918750D01*
X-279796875Y340118750D01*
D10*
X-278896875Y339118750D02*
G75*
G03*
X-279396875Y339618750I-500000J0D01*
G01*
X-279396875Y338118750D02*
G75*
G03*
X-278896875Y338618750I0J500000D01*
G01*
X-280696875Y338618750D02*
G75*
G03*
X-280196875Y338118750I500000J0D01*
G01*
X-280196875Y339618750D02*
G75*
G03*
X-280696875Y339118750I0J-500000D01*
G01*
%TO.C,D7*%
X-298446875Y339618750D02*
X-299246875Y339618750D01*
X-297946875Y338618788D02*
X-297946875Y339118750D01*
X-298446875Y338118750D02*
X-299246875Y338118750D01*
X-299746875Y339118712D02*
X-299746875Y338618750D01*
D12*
G36*
X-298846875Y340118750D02*
G01*
X-298246875Y340918750D01*
X-299446875Y340918750D01*
X-298846875Y340118750D01*
G37*
X-298846875Y340118750D02*
X-298246875Y340918750D01*
X-299446875Y340918750D01*
X-298846875Y340118750D01*
D10*
X-297946875Y339118750D02*
G75*
G03*
X-298446875Y339618750I-500000J0D01*
G01*
X-298446875Y338118750D02*
G75*
G03*
X-297946875Y338618750I0J500000D01*
G01*
X-299746875Y338618750D02*
G75*
G03*
X-299246875Y338118750I500000J0D01*
G01*
X-299246875Y339618750D02*
G75*
G03*
X-299746875Y339118750I0J-500000D01*
G01*
%TO.C,D6*%
X-317496875Y339618750D02*
X-318296875Y339618750D01*
X-316996875Y338618788D02*
X-316996875Y339118750D01*
X-317496875Y338118750D02*
X-318296875Y338118750D01*
X-318796875Y339118712D02*
X-318796875Y338618750D01*
D12*
G36*
X-317896875Y340118750D02*
G01*
X-317296875Y340918750D01*
X-318496875Y340918750D01*
X-317896875Y340118750D01*
G37*
X-317896875Y340118750D02*
X-317296875Y340918750D01*
X-318496875Y340918750D01*
X-317896875Y340118750D01*
D10*
X-316996875Y339118750D02*
G75*
G03*
X-317496875Y339618750I-500000J0D01*
G01*
X-317496875Y338118750D02*
G75*
G03*
X-316996875Y338618750I0J500000D01*
G01*
X-318796875Y338618750D02*
G75*
G03*
X-318296875Y338118750I500000J0D01*
G01*
X-318296875Y339618750D02*
G75*
G03*
X-318796875Y339118750I0J-500000D01*
G01*
%TO.C,D5*%
X-336546875Y339618750D02*
X-337346875Y339618750D01*
X-336046875Y338618788D02*
X-336046875Y339118750D01*
X-336546875Y338118750D02*
X-337346875Y338118750D01*
X-337846875Y339118712D02*
X-337846875Y338618750D01*
D12*
G36*
X-336946875Y340118750D02*
G01*
X-336346875Y340918750D01*
X-337546875Y340918750D01*
X-336946875Y340118750D01*
G37*
X-336946875Y340118750D02*
X-336346875Y340918750D01*
X-337546875Y340918750D01*
X-336946875Y340118750D01*
D10*
X-336046875Y339118750D02*
G75*
G03*
X-336546875Y339618750I-500000J0D01*
G01*
X-336546875Y338118750D02*
G75*
G03*
X-336046875Y338618750I0J500000D01*
G01*
X-337846875Y338618750D02*
G75*
G03*
X-337346875Y338118750I500000J0D01*
G01*
X-337346875Y339618750D02*
G75*
G03*
X-337846875Y339118750I0J-500000D01*
G01*
%TO.C,D4*%
X-355596875Y339618750D02*
X-356396875Y339618750D01*
X-355096875Y338618788D02*
X-355096875Y339118750D01*
X-355596875Y338118750D02*
X-356396875Y338118750D01*
X-356896875Y339118712D02*
X-356896875Y338618750D01*
D12*
G36*
X-355996875Y340118750D02*
G01*
X-355396875Y340918750D01*
X-356596875Y340918750D01*
X-355996875Y340118750D01*
G37*
X-355996875Y340118750D02*
X-355396875Y340918750D01*
X-356596875Y340918750D01*
X-355996875Y340118750D01*
D10*
X-355096875Y339118750D02*
G75*
G03*
X-355596875Y339618750I-500000J0D01*
G01*
X-355596875Y338118750D02*
G75*
G03*
X-355096875Y338618750I0J500000D01*
G01*
X-356896875Y338618750D02*
G75*
G03*
X-356396875Y338118750I500000J0D01*
G01*
X-356396875Y339618750D02*
G75*
G03*
X-356896875Y339118750I0J-500000D01*
G01*
%TO.C,D3*%
X-374646875Y339618750D02*
X-375446875Y339618750D01*
X-374146875Y338618788D02*
X-374146875Y339118750D01*
X-374646875Y338118750D02*
X-375446875Y338118750D01*
X-375946875Y339118712D02*
X-375946875Y338618750D01*
D12*
G36*
X-375046875Y340118750D02*
G01*
X-374446875Y340918750D01*
X-375646875Y340918750D01*
X-375046875Y340118750D01*
G37*
X-375046875Y340118750D02*
X-374446875Y340918750D01*
X-375646875Y340918750D01*
X-375046875Y340118750D01*
D10*
X-374146875Y339118750D02*
G75*
G03*
X-374646875Y339618750I-500000J0D01*
G01*
X-374646875Y338118750D02*
G75*
G03*
X-374146875Y338618750I0J500000D01*
G01*
X-375946875Y338618750D02*
G75*
G03*
X-375446875Y338118750I500000J0D01*
G01*
X-375446875Y339618750D02*
G75*
G03*
X-375946875Y339118750I0J-500000D01*
G01*
%TO.C,D2*%
X-389625000Y343300000D02*
X-389625000Y342500000D01*
X-388625038Y343800000D02*
X-389125000Y343800000D01*
X-388125000Y343300000D02*
X-388125000Y342500000D01*
X-389124962Y342000000D02*
X-388625000Y342000000D01*
D12*
G36*
X-390125000Y342900000D02*
G01*
X-390925000Y343500000D01*
X-390925000Y342300000D01*
X-390125000Y342900000D01*
G37*
X-390125000Y342900000D02*
X-390925000Y343500000D01*
X-390925000Y342300000D01*
X-390125000Y342900000D01*
D10*
X-389125000Y343800000D02*
G75*
G03*
X-389625000Y343300000I0J-500000D01*
G01*
X-388125000Y343300000D02*
G75*
G03*
X-388625000Y343800000I-500000J0D01*
G01*
X-388625000Y342000000D02*
G75*
G03*
X-388125000Y342500000I0J500000D01*
G01*
X-389625000Y342500000D02*
G75*
G03*
X-389125000Y342000000I500000J0D01*
G01*
%TO.C,D1*%
X-408675000Y343300000D02*
X-408675000Y342500000D01*
X-407675038Y343800000D02*
X-408175000Y343800000D01*
X-407175000Y343300000D02*
X-407175000Y342500000D01*
X-408174962Y342000000D02*
X-407675000Y342000000D01*
D12*
G36*
X-409175000Y342900000D02*
G01*
X-409975000Y343500000D01*
X-409975000Y342300000D01*
X-409175000Y342900000D01*
G37*
X-409175000Y342900000D02*
X-409975000Y343500000D01*
X-409975000Y342300000D01*
X-409175000Y342900000D01*
D10*
X-408175000Y343800000D02*
G75*
G03*
X-408675000Y343300000I0J-500000D01*
G01*
X-407175000Y343300000D02*
G75*
G03*
X-407675000Y343800000I-500000J0D01*
G01*
X-407675000Y342000000D02*
G75*
G03*
X-407175000Y342500000I0J500000D01*
G01*
X-408675000Y342500000D02*
G75*
G03*
X-408175000Y342000000I500000J0D01*
G01*
D11*
%TO.C,R2*%
X-368371250Y326504186D02*
X-368371250Y327708314D01*
X-370191250Y326504186D02*
X-370191250Y327708314D01*
%TO.C,Y1*%
X-416111130Y302738760D02*
X-416111130Y295488760D01*
X-416111130Y295488760D02*
X-419711130Y295488760D01*
X-419711130Y295488760D02*
X-419711130Y302738760D01*
%TO.C,R5*%
X-376270814Y321722500D02*
X-375066686Y321722500D01*
X-376270814Y319902500D02*
X-375066686Y319902500D01*
%TO.C,R4*%
X-396758750Y339916686D02*
X-396758750Y341120814D01*
X-398578750Y339916686D02*
X-398578750Y341120814D01*
%TO.C,R3*%
X-401521250Y339916686D02*
X-401521250Y341120814D01*
X-403341250Y339916686D02*
X-403341250Y341120814D01*
%TO.C,R1*%
X-372683750Y327708314D02*
X-372683750Y326504186D01*
X-374503750Y327708314D02*
X-374503750Y326504186D01*
%TO.C,C4*%
X-394005002Y306428750D02*
X-393482498Y306428750D01*
X-394005002Y305008750D02*
X-393482498Y305008750D01*
%TO.C,C3*%
X-384207498Y307446250D02*
X-384730002Y307446250D01*
X-384207498Y308866250D02*
X-384730002Y308866250D01*
%TO.C,C2*%
X-388553750Y329182498D02*
X-388553750Y329705002D01*
X-387133750Y329182498D02*
X-387133750Y329705002D01*
%TO.C,C1*%
X-400111252Y323210000D02*
X-399588748Y323210000D01*
X-400111252Y321790000D02*
X-399588748Y321790000D01*
%TO.C,C8*%
X-384161252Y313178750D02*
X-383638748Y313178750D01*
X-384161252Y311758750D02*
X-383638748Y311758750D01*
%TO.C,C7*%
X-418172382Y305281910D02*
X-417649878Y305281910D01*
X-418172382Y306701910D02*
X-417649878Y306701910D01*
%TO.C,C6*%
X-418172382Y293375610D02*
X-417649878Y293375610D01*
X-418172382Y294795610D02*
X-417649878Y294795610D01*
%TD*%
M02*
